<?xml version="1.0" encoding="UTF-8"?>
<!-- Generator: Adobe Illustrator 25.1.0, SVG Export Plug-In . SVG Version: 6.00 Build 0)  -->
<svg xmlns="http://www.w3.org/2000/svg" xmlns:xlink="http://www.w3.org/1999/xlink" version="1.1" id="Capa_1" x="0px" y="0px" viewBox="0 0 500 500" style="enable-background:new 0 0 500 500;" xml:space="preserve" width="512" height="512">
<g>
	<g>
		<g>
			<path style="fill:#F1A199;" d="M126.217,413.176l16.502,74.671c0,0-13.379,3.326-8.251,3.951c5.129,0.625,20.999,0,23.059,0     c2.06,0,22.186-59.142,22.186-59.142S133.852,408.986,126.217,413.176z"/>
		</g>
	</g>
	<g>
		<g>
			<path style="fill:#F1A199;" d="M324.24,416.932l-16.501,74.671c0,0,13.379,3.326,8.251,3.951c-5.129,0.625-20.999,0-23.059,0     c-2.06,0-22.186-59.142-22.186-59.142S316.604,412.742,324.24,416.932z"/>
		</g>
	</g>
	<g>
		<g>
			<path style="fill:#2C9086;" d="M320.596,212.335c0,0,99.264,21.546,88.596,114.712l-57.278,23.554     c0,0-27.007-110.822-39.427-118.219L320.596,212.335z"/>
		</g>
	</g>
	<g>
		<g>
			<path style="fill:#F1A199;" d="M159.669,212.335c0,0-137.8,90.39-25.782,223.754l181.519,10.796     c0,0,131.965-112.584,17.411-222.592L159.669,212.335z"/>
		</g>
	</g>
	<g>
		<g>
			<path style="fill:#FBE6D6;" d="M293.114,308.542c0,0-9.635-72.742-56.363-76.114c-46.728-3.372-143.276,177.577-1.927,195.344     C313.346,437.642,293.114,308.542,293.114,308.542z"/>
		</g>
	</g>
	<g>
		<g>
			<g>
				<polygon style="fill:#F8B547;" points="311.583,290.917 139.871,282.381 135.241,381.485 309.441,389.902     "/>
			</g>
		</g>
		<g>
			<g>
				<path style="fill:#251326;" d="M241.25,365.089c-1.006,0-6.532-1.492-19.697-29.931c-1.917,7.647-7.319,27.433-12.366,29.464      c-0.851,0.342-1.706,0.263-2.47-0.233c-0.751-0.489-1.228-1.248-1.417-2.259c-0.902-4.819,5.383-15.692,10.183-23.112      c-6.436,5.688-16.2,13.19-22.212,12.585c-1.802-0.179-3.202-1.023-4.164-2.509c-1.262-1.951-1.466-3.875-0.602-5.717      c3.04-6.495,19.64-10.031,27.948-11.417c-11.113-3.024-31.399-9.341-30.418-14.937c0.13-0.752,0.589-1.336,1.289-1.644      c4.225-1.855,20.946,7.724,29.774,13.109c-5.864-7.681-16.568-22.885-14.336-28.85c0.362-0.968,1.236-2.198,3.338-2.555      c2.991-0.521,5.872,5.993,11.719,21.696c1.357,3.646,2.853,7.663,3.804,9.656c0.262-1.559,0.538-4.153,0.806-6.688      c1.489-14.047,3.253-26.886,8.41-29.683c1.392-0.755,2.91-0.723,4.515,0.097c1.842,0.94,3.14,4.188-3.242,21.104      c-1.845,4.889-3.887,9.718-5.383,13.145c7.64-7.581,21.233-20.159,25.404-18.295c0.728,0.326,1.564,1.153,1.411,3.236      c-0.623,8.442-16.557,15.906-25.706,19.513c9.498,2.318,26.952,7.138,27.608,11.391c0.106,0.686-0.07,1.681-1.509,2.525      c-5.393,3.152-16.985-3.077-24.853-8.143c7.178,8.001,17.157,20.681,14.472,26.718c-0.636,1.429-1.604,1.732-2.302,1.735      C241.252,365.089,241.25,365.089,241.25,365.089z M222.597,332.799c6.917,15.095,15.651,30.357,18.646,30.357      c0.083,0.027,0.279,0.015,0.547-0.588c2.609-5.867-11.613-22.245-19-29.836C222.724,332.757,222.658,332.778,222.597,332.799z       M219.056,337.127c-5.2,7.771-12.689,20.196-11.855,24.648c0.119,0.636,0.381,0.872,0.57,0.994      c0.234,0.15,0.428,0.168,0.694,0.06C211.684,361.534,216.197,347.975,219.056,337.127z M218.537,333.578      c-8.987,1.372-25.65,4.996-28.282,10.618c-0.57,1.216-0.413,2.476,0.475,3.849c0.634,0.981,1.528,1.516,2.732,1.636      C199.749,350.299,212.231,339.657,218.537,333.578z M226.393,332.504c8.051,5.536,21.616,13.515,26.567,10.607      c0.359-0.209,0.596-0.441,0.577-0.561C253.179,340.223,239.686,335.711,226.393,332.504z M188.925,317.007      c-0.332,0-0.608,0.045-0.821,0.14c-0.113,0.049-0.145,0.089-0.166,0.209c-0.494,2.83,12.827,8.157,27.259,12.243      C205.31,323.641,192.957,317.007,188.925,317.007z M250.911,309.798c-3.162,0-14.363,9.478-24.321,19.486      c9.851-3.85,24.51-11.053,25.027-18.075c0.055-0.722-0.051-1.231-0.274-1.331C251.222,309.824,251.079,309.798,250.911,309.798z       M232.931,293.455c-0.408,0-0.794,0.103-1.172,0.308c-4.691,2.543-6.393,18.596-7.41,28.187      c-0.357,3.363-0.598,5.577-0.859,7.012c8.236-18.039,13.238-33.932,10.983-35.081      C233.918,293.597,233.409,293.455,232.931,293.455z M206.404,298.988c-1.277,0.219-1.659,0.862-1.832,1.326      c-1.832,4.897,8.559,19.871,14.942,28.137c-0.787-1.776-1.862-4.584-3.506-8.999      C213.559,312.876,208.465,299.193,206.404,298.988z"/>
			</g>
		</g>
		<g>
			<g>
				<path style="fill:#251326;" d="M310.674,333.823c-0.009,0-0.019,0-0.028,0l-175.815-5.195c-0.534-0.016-0.953-0.461-0.938-0.994      c0.015-0.533,0.445-0.932,0.994-0.938l175.815,5.195c0.534,0.016,0.953,0.461,0.938,0.994      C311.625,333.409,311.195,333.823,310.674,333.823z"/>
			</g>
		</g>
		<g>
			<g>
				<path style="fill:#251326;" d="M226.573,386.864c-0.506,0-0.932-0.393-0.964-0.905l-6.328-99.521      c-0.034-0.532,0.37-0.992,0.904-1.025c0.587-0.024,0.991,0.373,1.025,0.903l6.328,99.521c0.034,0.532-0.37,0.992-0.904,1.025      C226.612,386.863,226.592,386.864,226.573,386.864z"/>
			</g>
		</g>
	</g>
	<g>
		<g>
			<path style="fill:#F1A199;" d="M315.935,97.171c0,0,24.893-45.116,14.225-46.047c-10.668-0.931-30.82,35.816-30.82,35.816     s-80.606-16.119-100.757-12.801c0,0-19.317-44.692-26.847-37.282s10.251,41.972,10.251,41.972l-26.078,102.46l176.909,13.164     C332.817,194.453,323.05,122.848,315.935,97.171z"/>
		</g>
	</g>
	<g>
		<g>
			<path style="fill:#251426;" d="M252.4,146.633c-0.032,0-0.066-0.002-0.1-0.006l-24.655-2.568     c-0.468-0.048-0.832-0.427-0.864-0.896l-4.523-68.319c-0.036-0.533,0.368-0.992,0.9-1.028c0.542-0.007,0.992,0.367,1.028,0.9     l4.468,67.507l23.15,2.411l25.912-57.987c0.219-0.488,0.791-0.707,1.276-0.488c0.487,0.218,0.706,0.789,0.487,1.276     l-26.197,58.626C253.124,146.411,252.777,146.633,252.4,146.633z"/>
		</g>
	</g>
	<g>
		<g>
			<path style="fill:#251326;" d="M259.591,145.667l-39.553-3.921c0,0,7.191,14.195,15.41,20.359     C243.667,168.268,259.591,145.667,259.591,145.667z"/>
		</g>
	</g>
	<g>
		<g>
			<path style="fill:#251426;" d="M283.249,137.45c-0.796,0-1.508-0.295-2.077-0.864c-3.84-3.84-0.628-16.404-0.251-17.824     c0.136-0.513,0.66-0.825,1.183-0.684c0.515,0.137,0.823,0.666,0.685,1.182c-0.949,3.56-2.843,13.367-0.251,15.96     c0.243,0.242,0.502,0.336,0.868,0.289c2.647-0.289,7.587-6.592,10.079-10.497c0.289-0.452,0.889-0.579,1.334-0.294     c0.451,0.287,0.583,0.884,0.296,1.334c-0.711,1.113-7.074,10.896-11.5,11.379C283.491,137.443,283.37,137.45,283.249,137.45z"/>
		</g>
	</g>
	<g>
		<g>
			<path style="fill:#251426;" d="M312.378,92.713c-0.142,0-0.287-0.031-0.423-0.097c-0.479-0.233-0.679-0.81-0.447-1.291     c4.128-8.507,8.185-18.493,8.153-21.102c-2.26,1.567-9.023,11.047-14.468,19.669c-0.287,0.453-0.889,0.583-1.332,0.301     c-0.451-0.285-0.587-0.882-0.302-1.333c3.919-6.206,13.364-20.652,16.4-20.775c0.46-0.028,0.911,0.184,1.194,0.559     c1.853,2.474-4.159,15.8-7.906,23.524C313.08,92.513,312.737,92.713,312.378,92.713z"/>
		</g>
	</g>
	<g>
		<g>
			<path style="fill:#251426;" d="M202.972,133.611c-3.128,0-5.115-9.879-6.236-18.242c-0.072-0.528,0.3-1.015,0.828-1.086     c0.513-0.075,1.015,0.3,1.085,0.829c1.136,8.472,3.134,16.063,4.364,16.576c1.149-0.47,3.21-8.061,4.391-16.581     c0.074-0.529,0.57-0.892,1.089-0.824c0.528,0.073,0.898,0.56,0.825,1.09c-0.925,6.669-2.957,17.906-6.194,18.23     C203.072,133.608,203.023,133.611,202.972,133.611z"/>
		</g>
	</g>
	<g>
		<g>
			<path style="fill:#251426;" d="M236.96,180.004c-0.708,0-1.406-0.059-2.096-0.181c-13.778-2.449-21.199-28.908-21.508-30.034     c-0.142-0.514,0.162-1.045,0.675-1.187c0.521-0.142,1.047,0.161,1.189,0.675c0.072,0.263,7.402,26.406,19.983,28.643     c12.587,2.22,30.297-20.739,30.474-20.972c0.326-0.425,0.934-0.505,1.353-0.182c0.425,0.324,0.508,0.929,0.183,1.354     C266.498,159.059,250.366,180.004,236.96,180.004z"/>
		</g>
	</g>
	<g>
		<g>
			<path style="fill:#251426;" d="M235.033,179.838c-0.075,0-0.151-0.008-0.228-0.027c-0.517-0.125-0.836-0.648-0.711-1.166     l7.111-29.338c0.126-0.519,0.643-0.839,1.168-0.711c0.517,0.125,0.836,0.648,0.711,1.166l-7.111,29.338     C235.865,179.542,235.469,179.838,235.033,179.838z"/>
		</g>
	</g>
	<g>
		<g>
			<circle style="fill:#EA6754;" cx="294.104" cy="152.991" r="13.829"/>
		</g>
	</g>
	<g>
		<g>
			<circle style="fill:#EA6754;" cx="189.198" cy="145.667" r="13.829"/>
		</g>
	</g>
	<g>
		<g>
			<path style="fill:#251426;" d="M186.825,78.038c-0.343,0-0.675-0.184-0.851-0.508c-1.557-2.891-9.193-17.516-6.706-21.66     c0.379-0.632,1.059-0.946,1.655-0.954c3.672,0.087,11.247,13.65,13.481,17.805c0.253,0.47,0.077,1.056-0.392,1.309     c-0.474,0.253-1.055,0.076-1.309-0.393c-4.9-9.112-10.306-16.788-11.817-16.788c-0.004,0-0.006,0-0.006,0     c-1.366,2.368,3.143,12.98,6.796,19.766c0.253,0.469,0.077,1.055-0.392,1.309C187.138,78.001,186.979,78.038,186.825,78.038z"/>
		</g>
	</g>
	<g>
		<g>
			<polygon style="fill:#2C9086;" points="344.766,187.898 145.747,178.872 142.205,217.846 341.224,226.845    "/>
		</g>
	</g>
	<g>
		<g>
			<path style="fill:#F1A199;" d="M339.1,286.197c0,0-35.413,55.508-60.201,64.404l25.489,30.189c0,0,57.377-24.855,46.045-84.338     L339.1,286.197z"/>
		</g>
	</g>
	<g>
		<g>
			<path style="fill:#251326;" d="M288.689,381.066c-0.86,0-1.621-0.188-2.226-0.624c-0.551-0.397-0.862-0.974-0.9-1.668     c-0.096-1.809,1.77-4.412,4.966-7.698c-4.174,2.3-8.808,3.903-12.085,2.149c-1.487-0.793-1.843-1.933-1.883-2.748     c-0.128-2.735,3.385-6.408,6.876-9.362c-5.449,2.213-11.408,4.224-12.98,3.222c-0.432-0.277-0.679-0.731-0.679-1.247     c0-3.213,11.729-10.247,16.77-13.123c0.46-0.261,1.053-0.103,1.319,0.361c0.264,0.463,0.102,1.053-0.36,1.318     c-7.025,4.005-14.606,9.189-15.672,11.106c0.021,0.001,0.042,0.001,0.062,0.001c2.351,0,10.979-3.313,18.297-6.682     c0.457-0.212,1.002-0.034,1.247,0.408c0.245,0.441,0.111,0.996-0.309,1.275c-4.962,3.288-12.781,9.625-12.64,12.632     c0.015,0.323,0.126,0.742,0.862,1.136c4.728,2.521,14.747-4.884,18.038-7.319c1.315-0.974,1.543-1.137,1.874-1.203     c0.417-0.082,0.879,0.127,1.074,0.518c0.362,0.722,0.228,0.842-2.002,2.839c-2.715,2.433-10.976,9.836-10.844,12.315     c0.006,0.127,0.042,0.162,0.098,0.203c2.064,1.483,9.589-2.857,14.276-6.413c0.425-0.32,1.03-0.24,1.355,0.186     c0.323,0.425,0.24,1.031-0.185,1.354C301.28,375.334,293.448,381.066,288.689,381.066z"/>
		</g>
	</g>
	<g>
		<g>
			<path style="fill:#F1A199;" d="M115.63,270.11c0,0,30.835,58.176,54.829,69.036l-27.833,28.042c0,0-55.193-29.387-39.115-87.767     L115.63,270.11z"/>
		</g>
	</g>
	<g>
		<g>
			<path style="fill:#251326;" d="M158.684,368.743c-4.713,0-12.472-6.698-14.166-8.214c-0.398-0.356-0.432-0.966-0.077-1.364     c0.358-0.399,0.972-0.428,1.364-0.075c4.387,3.923,11.557,8.846,13.715,7.54c0.06-0.037,0.098-0.068,0.115-0.194     c0.33-2.459-7.306-10.499-9.815-13.142c-2.064-2.175-2.189-2.305-1.77-2.995c0.225-0.372,0.694-0.546,1.111-0.431     c0.325,0.092,0.538,0.274,1.766,1.346c3.085,2.693,12.466,10.886,17.397,8.749c0.764-0.332,0.909-0.742,0.951-1.062     c0.383-2.989-6.902-9.932-11.583-13.608c-0.398-0.311-0.487-0.876-0.208-1.296c0.279-0.421,0.842-0.551,1.277-0.306     c7.089,3.983,15.514,8.018,17.765,8.136c-0.896-1.986-8.044-7.769-14.731-12.33c-0.44-0.301-0.553-0.902-0.253-1.342     c0.302-0.443,0.902-0.552,1.343-0.254c4.794,3.271,15.917,11.225,15.659,14.428c-0.042,0.514-0.325,0.947-0.777,1.189     c-1.647,0.879-7.423-1.61-12.678-4.255c3.242,3.226,6.449,7.169,6.1,9.884c-0.104,0.81-0.551,1.917-2.096,2.589     c-3.413,1.481-7.896-0.487-11.874-3.114c2.921,3.534,4.572,6.277,4.33,8.073c-0.092,0.689-0.449,1.239-1.03,1.59     C159.992,368.602,159.369,368.743,158.684,368.743z"/>
		</g>
	</g>
	<g>
		<g>
			<path style="fill:#251326;" d="M304.388,381.756c-0.511,0-0.938-0.399-0.964-0.914c-0.028-0.533,0.379-0.988,0.911-1.017     c19.778-1.064,35.037-8.195,45.354-21.194c22.178-27.942,14.308-74.166,14.227-74.629c-0.092-0.525,0.257-1.027,0.783-1.12     c0.515-0.096,1.026,0.257,1.119,0.782c0.083,0.473,8.108,47.531-14.61,76.162c-10.676,13.454-26.412,20.833-46.767,21.929     C304.422,381.756,304.405,381.756,304.388,381.756z"/>
		</g>
	</g>
	<g>
		<g>
			<path style="fill:#251326;" d="M295.453,340.763c-0.308,0-0.609-0.146-0.796-0.42c-0.302-0.44-0.191-1.041,0.249-1.342     c45.72-31.377,17.604-76.954,16.385-78.879c-0.287-0.45-0.153-1.047,0.298-1.333c0.447-0.287,1.045-0.153,1.332,0.298     c0.309,0.488,30.346,49.067-16.921,81.507C295.833,340.708,295.642,340.763,295.453,340.763z"/>
		</g>
	</g>
	<g>
		<g>
			<path style="fill:#251326;" d="M150.197,322.946c-0.26,0-0.523-0.106-0.713-0.313c-12.951-14.143-18.912-28.307-17.717-42.099     c1.613-18.634,15.632-29.638,16.227-30.098c0.428-0.328,1.03-0.246,1.355,0.175c0.326,0.422,0.247,1.028-0.174,1.355     c-0.14,0.108-13.957,10.978-15.485,28.758c-1.136,13.224,4.657,26.885,17.221,40.603c0.36,0.394,0.332,1.005-0.06,1.365     C150.665,322.862,150.431,322.946,150.197,322.946z"/>
		</g>
	</g>
	<g>
		<g>
			<path style="fill:#251326;" d="M130.631,359.814c-0.181,0-0.364-0.051-0.528-0.158c-0.36-0.237-36.02-24.158-34.206-67.204     c0.023-0.533,0.389-0.964,1.008-0.925c0.532,0.023,0.945,0.473,0.925,1.006c-1.768,41.93,32.984,65.277,33.335,65.508     c0.445,0.293,0.57,0.892,0.277,1.338C131.254,359.661,130.946,359.814,130.631,359.814z"/>
		</g>
	</g>
	<g>
		<g>
			<path style="fill:#E8504E;" d="M208.361,73.729c0,0,14.817-64.842,53.843-72.547s64.073,24.792,64.073,24.792l-32.174,3.324     c0,0-1.127,45.361,0,56.622L208.361,73.729z"/>
		</g>
	</g>
	<g>
		<g>
			<g>
				<path style="fill:#FBE6D6;" d="M297.713,85.92c0,0,5.074-20.58-10.425-20.82c-15.499-0.24-11.73,13.598-7.013,9.679      s-2.004-20.673-16.647-18.897c-14.642,1.776-19.443,9.332-11.762,10.595s8.447-21.061-11.499-16.26      s-15.625,15.363-10.585,11.042s-6.727-11.126-15.606-6.043c-8.878,5.083-6.326,20.837-6.326,20.837"/>
			</g>
		</g>
		<g>
			<g>
				<path style="fill:#251426;" d="M297.714,86.885c-0.076,0-0.153-0.009-0.23-0.028c-0.519-0.127-0.836-0.651-0.708-1.169      c0.026-0.106,2.551-10.662-1.738-16.219c-1.702-2.205-4.315-3.35-7.766-3.403c-2.181-0.021-3.925,0.22-5.274,0.631      c1.289,3.785,0.894,7.163-1.108,8.826c-1.27,1.054-2.732,1.212-3.91,0.423c-1.589-1.064-2.221-3.507-1.502-5.808      c0.347-1.115,1.325-3.117,4.002-4.501c-2.294-4.79-7.672-9.779-15.736-8.795c-2.313,0.28-4.323,0.695-6.047,1.19      c0.436,2.668-0.079,5.265-1.142,6.984c-1.145,1.852-2.911,2.736-4.847,2.414c-4.06-0.667-4.455-2.844-4.436-3.749      c0.049-2.307,2.859-5.049,8.115-6.924c-0.289-0.852-0.704-1.682-1.26-2.449c-2.549-3.521-7.361-4.643-13.534-3.151      c-4.879,1.174-8.293,2.701-10.536,4.253c0.43,0.372,0.792,0.764,1.077,1.168c1.319,1.871,1.049,3.894-0.725,5.414      c-1.453,1.247-3.074,1.589-4.332,0.909c-1.087-0.589-1.645-1.843-1.459-3.276c0.162-1.233,0.864-2.626,2.242-4.024      c-3.162-1.512-8.074-1.91-12.206,0.454c-8.202,4.696-5.876,19.693-5.851,19.844c0.087,0.526-0.272,1.023-0.798,1.109      c-0.519,0.079-1.023-0.271-1.108-0.799c-0.109-0.671-2.553-16.477,6.798-21.831c5.13-2.937,11.055-2.159,14.702-0.115      c2.476-1.876,6.277-3.668,11.742-4.984c9.44-2.269,13.793,1.468,15.553,3.897c0.687,0.947,1.192,1.959,1.54,2.991      c1.851-0.531,3.947-0.959,6.277-1.242c9.168-1.104,15.208,4.567,17.759,9.979c1.568-0.501,3.542-0.793,6.032-0.768      c4.072,0.063,7.189,1.462,9.268,4.159c4.857,6.299,2.196,17.389,2.081,17.858C298.544,86.591,298.15,86.885,297.714,86.885z       M280.208,67.44c-1.93,1.056-2.632,2.465-2.885,3.275c-0.508,1.623-0.025,3.118,0.734,3.626c0.453,0.301,0.991,0.199,1.6-0.305      C280.97,72.945,281.157,70.337,280.208,67.44z M255.83,58.637c-4.564,1.659-6.598,3.859-6.625,5.085      c-0.017,0.836,1.036,1.509,2.817,1.803c1.464,0.235,2.379-0.698,2.891-1.525C255.732,62.675,256.107,60.689,255.83,58.637z       M228.531,56.628c-1.247,1.165-1.87,2.295-1.994,3.247c-0.083,0.629,0.091,1.125,0.46,1.326      c0.404,0.221,1.183,0.158,2.157-0.675c1.008-0.863,1.138-1.79,0.402-2.834C229.294,57.319,228.946,56.961,228.531,56.628z"/>
			</g>
		</g>
	</g>
	<g>
		<g>
			<g>
				<path style="fill:#FBE6D6;" d="M343.675,20.225c0,0,0.72-11.762-10.562-5.041c-11.282,6.721-13.202,16.803-6.481,18.723      s9.991-6.954,3.841-4.108s-2.21,15.5,9.457,15.685c11.667,0.185,15.027-13.017,9.266-12.297      c-5.761,0.72-0.72,11.042,3.841,6.961C357.598,36.067,360.238,15.664,343.675,20.225z"/>
			</g>
		</g>
		<g>
			<g>
				<path style="fill:#251426;" d="M340.171,46.452l-0.257-0.002c-4.113-0.065-7.764-1.639-10.281-4.431      c-1.874-2.076-2.96-4.677-3.008-7.114c-0.085-0.022-0.172-0.044-0.258-0.069c-2.543-0.727-4.191-2.588-4.517-5.104      c-0.54-4.141,2.581-10.501,10.77-15.379c4.551-2.711,7.998-2.893,10.081-0.68c1.445,1.538,1.83,3.877,1.923,5.323      c1.225-0.264,2.377-0.398,3.443-0.398c5.227,0,7.504,3.09,8.495,5.682c2.111,5.525,0.147,13.878-2.881,16.588      c-0.887,0.794-1.857,1.197-2.877,1.197l0,0c-0.164,0-0.328-0.01-0.492-0.032C348.717,43.87,345.522,46.452,340.171,46.452z       M328.567,35.147c0.109,1.897,1.006,3.922,2.5,5.577c2.155,2.39,5.308,3.737,8.878,3.793l0.226,0.002      c4.13,0,6.747-1.767,8.221-3.256c-1.717-1.19-2.911-3.52-2.726-5.642c0.166-1.879,1.442-3.148,3.411-3.394      c1.613-0.199,2.813,0.426,3.43,1.696c0.74,1.52,0.44,3.783-0.694,5.926c0.194-0.109,0.389-0.25,0.581-0.422      c2.268-2.029,4.27-9.471,2.364-14.459c-1.545-4.043-5.277-5.34-10.827-3.814c-0.304,0.086-0.623,0.016-0.864-0.181      c-0.242-0.195-0.375-0.497-0.357-0.808c0.002-0.035,0.183-3.474-1.421-5.173c-1.445-1.532-4.062-1.139-7.681,1.02      c-7.395,4.405-10.287,10.069-9.844,13.468c0.226,1.745,1.287,2.945,3.064,3.476c0.443-1.831,1.585-3.271,3.238-4.035      c0.943-0.437,1.768-0.658,2.455-0.658c0.819,0,1.315,0.312,1.587,0.574c0.387,0.372,0.591,0.881,0.591,1.473      C334.7,32.276,332.313,35.127,328.567,35.147z M349.636,34.125c-0.102,0-0.209,0.007-0.321,0.021      c-1.074,0.134-1.638,0.673-1.725,1.647c-0.126,1.454,0.821,3.216,2.03,3.97c1.351-2.015,1.621-4.023,1.149-4.992      C350.555,34.33,350.194,34.125,349.636,34.125z M332.522,30.197c-0.226,0-0.743,0.062-1.643,0.478      c-1.055,0.489-1.785,1.371-2.119,2.535c1.808-0.082,3.096-1.104,3.662-1.983c0.355-0.552,0.368-0.938,0.334-1.016      C332.754,30.226,332.683,30.197,332.522,30.197z"/>
			</g>
		</g>
	</g>
	<g>
		<g>
			<path style="fill:#251426;" d="M244.366,20.333c-0.032,0-0.064-0.002-0.096-0.005c-0.53-0.052-0.919-0.524-0.868-1.055     c0.481-4.943,7.428-7.007,7.725-7.093c0.508-0.147,1.045,0.147,1.194,0.659c0.149,0.511-0.145,1.047-0.657,1.196     c-0.06,0.018-5.985,1.785-6.338,5.424C245.277,19.959,244.856,20.333,244.366,20.333z"/>
		</g>
	</g>
	<g>
		<g>
			<path style="fill:#251426;" d="M234.588,38.497c-0.032,0-0.064-0.002-0.096-0.005c-0.53-0.052-0.919-0.524-0.868-1.055     c0.481-4.943,7.428-7.007,7.725-7.093c0.508-0.147,1.045,0.147,1.194,0.659c0.149,0.511-0.145,1.047-0.657,1.196     c-0.06,0.018-5.985,1.785-6.338,5.424C235.499,38.123,235.079,38.497,234.588,38.497z"/>
		</g>
	</g>
	<g>
		<g>
			<path style="fill:#251426;" d="M115.066,327.479c-0.174,0-0.349-0.046-0.508-0.144c-4.227-2.608-3.021-9.754-2.966-10.057     c0.092-0.525,0.592-0.881,1.117-0.783c0.526,0.091,0.877,0.592,0.785,1.118c-0.009,0.061-1.032,6.159,2.079,8.078     c0.453,0.279,0.594,0.875,0.315,1.329C115.706,327.316,115.389,327.479,115.066,327.479z"/>
		</g>
	</g>
	<g>
		<g>
			<path style="fill:#251426;" d="M342.477,351.922c-0.381,0-0.743-0.228-0.894-0.604c-0.2-0.494,0.038-1.058,0.532-1.258     c0.059-0.024,5.772-2.383,5.755-6.039c-0.002-0.534,0.428-0.968,0.962-0.971c0,0,0.002,0,0.004,0     c0.532,0,0.964,0.429,0.966,0.961c0.023,4.967-6.678,7.725-6.964,7.84C342.72,351.9,342.598,351.922,342.477,351.922z"/>
		</g>
	</g>
	<g>
		<g>
			<path style="fill:#251426;" d="M339.298,343.132c-0.381,0-0.743-0.228-0.894-0.604c-0.2-0.494,0.038-1.058,0.532-1.258     c0.058-0.024,5.772-2.383,5.755-6.038c-0.002-0.534,0.428-0.968,0.962-0.971c0,0,0.002,0,0.004,0     c0.532,0,0.964,0.429,0.966,0.961c0.025,4.966-6.678,7.724-6.964,7.839C339.541,343.11,339.419,343.132,339.298,343.132z"/>
		</g>
	</g>
	<g>
		<g>
			<path style="fill:#251426;" d="M332.186,365.799c-0.381,0-0.743-0.228-0.894-0.604c-0.2-0.494,0.038-1.058,0.532-1.258     c0.058-0.024,5.772-2.383,5.755-6.039c-0.002-0.534,0.428-0.968,0.962-0.971c0,0,0.002,0,0.004,0     c0.532,0,0.964,0.429,0.966,0.961c0.023,4.967-6.677,7.725-6.964,7.84C332.43,365.776,332.307,365.799,332.186,365.799z"/>
		</g>
	</g>
	<g>
		<g>
			<path style="fill:#251426;" d="M326.565,358.86c-0.381,0-0.743-0.228-0.894-0.605c-0.2-0.494,0.038-1.057,0.532-1.257     c0.059-0.024,5.772-2.382,5.755-6.038c-0.002-0.534,0.428-0.968,0.962-0.971c0,0,0.002,0,0.004,0     c0.532,0,0.964,0.429,0.966,0.961c0.025,4.967-6.677,7.724-6.964,7.839C326.809,358.837,326.686,358.86,326.565,358.86z"/>
		</g>
	</g>
	<g>
		<g>
			<path style="fill:#251426;" d="M350.081,336.746c-0.381,0-0.743-0.228-0.894-0.605c-0.2-0.494,0.038-1.057,0.532-1.257     c0.059-0.024,5.772-2.382,5.755-6.038c-0.002-0.534,0.428-0.968,0.962-0.971c0,0,0.002,0,0.004,0     c0.532,0,0.964,0.429,0.966,0.961c0.023,4.967-6.678,7.724-6.964,7.839C350.324,336.724,350.202,336.746,350.081,336.746z"/>
		</g>
	</g>
	<g>
		<g>
			<path style="fill:#251426;" d="M349.658,324.848c-0.3,0-0.596-0.139-0.785-0.401c-0.311-0.432-0.215-1.036,0.217-1.348     c0.051-0.037,5.034-3.694,4.142-7.24c-0.13-0.518,0.185-1.042,0.702-1.173c0.523-0.132,1.042,0.184,1.174,0.701     c1.211,4.816-4.636,9.098-4.887,9.279C350.051,324.789,349.853,324.848,349.658,324.848z"/>
		</g>
	</g>
	<g>
		<g>
			<path style="fill:#251426;" d="M119.755,313.878c-0.174,0-0.349-0.046-0.508-0.144c-4.227-2.608-3.021-9.754-2.966-10.057     c0.092-0.526,0.6-0.876,1.117-0.783c0.526,0.092,0.877,0.592,0.785,1.118c-0.009,0.061-1.032,6.159,2.079,8.078     c0.453,0.279,0.594,0.875,0.315,1.329C120.395,313.715,120.078,313.878,119.755,313.878z"/>
		</g>
	</g>
	<g>
		<g>
			<path style="fill:#251426;" d="M110.559,313.878c-0.174,0-0.349-0.046-0.508-0.144c-4.227-2.608-3.021-9.754-2.966-10.057     c0.092-0.526,0.594-0.876,1.117-0.783c0.526,0.092,0.877,0.592,0.785,1.118c-0.009,0.061-1.032,6.159,2.079,8.078     c0.453,0.279,0.594,0.875,0.315,1.329C111.198,313.715,110.882,313.878,110.559,313.878z"/>
		</g>
	</g>
	<g>
		<g>
			<path style="fill:#251426;" d="M113.714,298.858c-0.174,0-0.349-0.046-0.508-0.144c-4.227-2.608-3.021-9.754-2.966-10.057     c0.092-0.526,0.592-0.884,1.117-0.783c0.526,0.092,0.877,0.592,0.785,1.118c-0.009,0.061-1.032,6.159,2.079,8.078     c0.453,0.279,0.594,0.875,0.315,1.329C114.353,298.695,114.036,298.858,113.714,298.858z"/>
		</g>
	</g>
	<g>
		<g>
			<path style="fill:#251426;" d="M202.968,272.308c-0.428,0-0.821-0.287-0.934-0.72c-1.266-4.803,4.534-9.149,4.781-9.332     c0.426-0.319,1.034-0.225,1.349,0.203c0.317,0.429,0.226,1.034-0.202,1.351c-0.049,0.038-4.993,3.751-4.06,7.286     c0.136,0.516-0.172,1.044-0.689,1.18C203.133,272.298,203.05,272.308,202.968,272.308z"/>
		</g>
	</g>
	<g>
		<g>
			<path style="fill:#251426;" d="M206.242,282.612c-0.428,0-0.821-0.287-0.934-0.72c-1.266-4.803,4.534-9.149,4.781-9.332     c0.428-0.32,1.034-0.225,1.349,0.203c0.317,0.429,0.226,1.034-0.202,1.351c-0.049,0.038-4.993,3.751-4.06,7.286     c0.136,0.516-0.172,1.044-0.689,1.18C206.406,282.602,206.323,282.612,206.242,282.612z"/>
		</g>
	</g>
	<g>
		<g>
			<path style="fill:#251426;" d="M217.323,278.853c-0.345,0-0.679-0.186-0.853-0.512c-2.332-4.386,2.319-9.944,2.519-10.179     c0.345-0.405,0.957-0.455,1.36-0.111c0.406,0.345,0.457,0.955,0.113,1.361c-0.042,0.048-4.004,4.793-2.287,8.021     c0.251,0.472,0.072,1.057-0.4,1.307C217.633,278.817,217.478,278.853,217.323,278.853z"/>
		</g>
	</g>
	<g>
		<g>
			<path style="fill:#251426;" d="M216.314,258.37c-0.428,0-0.821-0.287-0.934-0.72c-1.266-4.803,4.534-9.149,4.781-9.332     c0.426-0.32,1.034-0.225,1.349,0.203c0.317,0.429,0.226,1.034-0.202,1.351c-0.049,0.038-4.993,3.751-4.06,7.286     c0.136,0.516-0.172,1.044-0.689,1.18C216.478,258.36,216.395,258.37,216.314,258.37z"/>
		</g>
	</g>
	<g>
		<g>
			<path style="fill:#251426;" d="M199.8,401.563c-0.185,0-0.372-0.053-0.538-0.163c-4.127-2.764-2.653-9.861-2.589-10.161     c0.113-0.522,0.638-0.844,1.147-0.742c0.521,0.112,0.855,0.625,0.743,1.146c-0.013,0.061-1.264,6.115,1.774,8.15     c0.443,0.297,0.562,0.897,0.264,1.341C200.417,401.413,200.112,401.563,199.8,401.563z"/>
		</g>
	</g>
	<g>
		<g>
			<path style="fill:#251426;" d="M181.692,399.043c-0.213,0-0.426-0.07-0.606-0.213c-3.872-3.109-1.792-10.052-1.702-10.346     c0.155-0.509,0.691-0.794,1.206-0.64c0.509,0.157,0.796,0.696,0.642,1.207c-0.019,0.059-1.785,5.984,1.066,8.274     c0.415,0.334,0.481,0.942,0.147,1.358C182.255,398.919,181.975,399.043,181.692,399.043z"/>
		</g>
	</g>
	<g>
		<g>
			<path style="fill:#251426;" d="M194.442,408.075c-0.142,0-0.285-0.03-0.419-0.095c-4.474-2.156-4.017-9.388-3.996-9.695     c0.038-0.531,0.506-0.942,1.03-0.895c0.532,0.037,0.934,0.498,0.898,1.03c-0.004,0.062-0.387,6.232,2.906,7.818     c0.481,0.232,0.683,0.809,0.451,1.29C195.146,407.874,194.8,408.075,194.442,408.075z"/>
		</g>
	</g>
	<g>
		<g>
			<path style="fill:#251426;" d="M206.095,415.604c-0.213,0-0.426-0.07-0.606-0.213c-3.872-3.109-1.792-10.051-1.702-10.346     c0.153-0.508,0.689-0.798,1.206-0.64c0.509,0.157,0.796,0.696,0.642,1.207c-0.019,0.059-1.785,5.983,1.066,8.273     c0.415,0.334,0.481,0.942,0.147,1.358C206.657,415.48,206.378,415.604,206.095,415.604z"/>
		</g>
	</g>
	<g>
		<g>
			<path style="fill:#251426;" d="M126.218,406.295c-0.213,0-0.426-0.07-0.606-0.213c-3.872-3.109-1.792-10.052-1.702-10.346     c0.155-0.509,0.687-0.797,1.206-0.64c0.509,0.157,0.796,0.696,0.642,1.207c-0.019,0.059-1.785,5.984,1.066,8.274     c0.415,0.334,0.481,0.942,0.147,1.358C126.78,406.172,126.501,406.295,126.218,406.295z"/>
		</g>
	</g>
	<g>
		<g>
			<path style="fill:#251426;" d="M119.393,396.986c-0.213,0-0.426-0.07-0.606-0.213c-3.872-3.109-1.792-10.051-1.702-10.345     c0.155-0.508,0.689-0.796,1.206-0.64c0.509,0.157,0.796,0.696,0.642,1.207c-0.019,0.059-1.785,5.983,1.066,8.273     c0.415,0.334,0.481,0.942,0.147,1.358C119.955,396.862,119.676,396.986,119.393,396.986z"/>
		</g>
	</g>
	<g>
		<g>
			<path style="fill:#251426;" d="M146.152,463.614c-0.213,0-0.426-0.07-0.606-0.213c-3.872-3.11-1.792-10.052-1.702-10.346     c0.155-0.508,0.689-0.794,1.206-0.64c0.509,0.157,0.796,0.696,0.642,1.207c-0.019,0.059-1.785,5.983,1.066,8.274     c0.415,0.334,0.481,0.942,0.147,1.359C146.714,463.492,146.435,463.614,146.152,463.614z"/>
		</g>
	</g>
	<g>
		<g>
			<path style="fill:#251426;" d="M142.38,450.882c-0.213,0-0.426-0.07-0.606-0.213c-3.872-3.109-1.791-10.052-1.7-10.346     c0.155-0.509,0.687-0.797,1.206-0.64c0.509,0.157,0.796,0.697,0.642,1.207c-0.019,0.059-1.787,5.984,1.064,8.274     c0.415,0.334,0.481,0.942,0.147,1.358C142.943,450.758,142.663,450.882,142.38,450.882z"/>
		</g>
	</g>
	<g>
		<g>
			<path style="fill:#251426;" d="M151.188,455.537c-0.213,0-0.426-0.07-0.606-0.213c-3.872-3.109-1.792-10.052-1.702-10.346     c0.155-0.509,0.691-0.797,1.206-0.64c0.509,0.157,0.796,0.696,0.642,1.207c-0.019,0.059-1.785,5.984,1.066,8.274     c0.415,0.334,0.481,0.942,0.147,1.358C151.75,455.413,151.471,455.537,151.188,455.537z"/>
		</g>
	</g>
	<g>
		<g>
			<path style="fill:#251426;" d="M304.925,456.953c-0.196,0-0.396-0.06-0.568-0.185c-0.43-0.313-0.526-0.917-0.213-1.349     c0.036-0.05,3.632-5.079,1.677-8.17c-0.285-0.451-0.151-1.047,0.3-1.333c0.447-0.285,1.047-0.152,1.334,0.301     c2.653,4.198-1.568,10.09-1.749,10.339C305.518,456.815,305.223,456.953,304.925,456.953z"/>
		</g>
	</g>
	<g>
		<g>
			<path style="fill:#251426;" d="M304.359,470.22c-0.196,0-0.396-0.06-0.568-0.185c-0.43-0.313-0.526-0.917-0.213-1.349     c0.036-0.049,3.63-5.079,1.677-8.171c-0.285-0.451-0.149-1.048,0.302-1.333c0.441-0.285,1.043-0.152,1.332,0.301     c2.651,4.199-1.568,10.09-1.749,10.339C304.952,470.082,304.657,470.22,304.359,470.22z"/>
		</g>
	</g>
	<g>
		<g>
			<path style="fill:#251426;" d="M297.54,462.958c-0.196,0-0.396-0.06-0.568-0.185c-0.43-0.313-0.526-0.917-0.213-1.349     c0.036-0.05,3.632-5.079,1.677-8.17c-0.285-0.451-0.151-1.047,0.3-1.333c0.447-0.285,1.045-0.152,1.334,0.301     c2.653,4.198-1.568,10.089-1.749,10.338C298.133,462.82,297.838,462.958,297.54,462.958z"/>
		</g>
	</g>
	<g>
		<g>
			<path style="fill:#251426;" d="M120.746,384.26c-0.213,0-0.426-0.07-0.606-0.213c-3.872-3.109-1.792-10.051-1.702-10.346     c0.155-0.508,0.689-0.795,1.206-0.64c0.509,0.157,0.796,0.696,0.642,1.207c-0.019,0.059-1.785,5.983,1.066,8.273     c0.415,0.334,0.481,0.942,0.147,1.358C121.308,384.136,121.029,384.26,120.746,384.26z"/>
		</g>
	</g>
	<g>
		<g>
			<path style="fill:#251426;" d="M110.197,384.26c-0.213,0-0.426-0.07-0.606-0.213c-3.872-3.109-1.792-10.051-1.702-10.346     c0.155-0.508,0.691-0.795,1.206-0.64c0.509,0.157,0.796,0.696,0.642,1.207c-0.019,0.059-1.785,5.983,1.066,8.273     c0.415,0.334,0.481,0.942,0.147,1.358C110.759,384.136,110.48,384.26,110.197,384.26z"/>
		</g>
	</g>
	<g>
		<g>
			<path style="fill:#251426;" d="M110.197,368.006c-0.213,0-0.426-0.07-0.606-0.213c-3.872-3.109-1.792-10.052-1.702-10.346     c0.155-0.508,0.691-0.793,1.206-0.64c0.509,0.157,0.796,0.696,0.642,1.207c-0.019,0.059-1.785,5.984,1.066,8.274     c0.415,0.334,0.481,0.942,0.147,1.358C110.759,367.882,110.48,368.006,110.197,368.006z"/>
		</g>
	</g>
	<g>
		<g>
			<path style="fill:#251426;" d="M193.272,280.619c-0.428,0-0.821-0.287-0.934-0.72c-1.264-4.803,4.534-9.149,4.781-9.332     c0.426-0.32,1.034-0.225,1.349,0.203c0.317,0.428,0.228,1.033-0.2,1.351c-0.051,0.037-4.993,3.751-4.062,7.286     c0.136,0.516-0.172,1.044-0.689,1.18C193.436,280.608,193.353,280.619,193.272,280.619z"/>
		</g>
	</g>
	<g>
		<g>
			<path style="fill:#251426;" d="M104.129,293.245c-0.336,0-0.664-0.176-0.842-0.491c-2.443-4.324,2.06-10.001,2.253-10.241     c0.336-0.415,0.942-0.479,1.359-0.147c0.415,0.334,0.481,0.942,0.147,1.358c-0.04,0.049-3.876,4.896-2.076,8.079     c0.262,0.465,0.098,1.054-0.366,1.317C104.453,293.204,104.291,293.245,104.129,293.245z"/>
		</g>
	</g>
	<g>
		<g>
			<path style="fill:#251426;" d="M258.183,22.448c-0.032,0-0.064-0.002-0.096-0.005c-0.53-0.052-0.919-0.524-0.868-1.055     c0.481-4.943,7.428-7.007,7.725-7.093c0.508-0.146,1.045,0.147,1.194,0.659c0.149,0.511-0.145,1.047-0.657,1.196     c-0.06,0.018-5.985,1.785-6.338,5.424C259.094,22.075,258.673,22.448,258.183,22.448z"/>
		</g>
	</g>
	<g>
		<g>
			<path style="fill:#251426;" d="M258.7,10.947c-0.113,0-0.226-0.02-0.338-0.061c-0.5-0.186-0.755-0.742-0.568-1.242     c1.736-4.652,8.981-4.858,9.289-4.864c0.008,0,0.015,0,0.021,0c0.525,0,0.953,0.419,0.966,0.944     c0.011,0.533-0.411,0.975-0.945,0.988c-0.062,0.001-6.242,0.183-7.519,3.608C259.46,10.707,259.092,10.947,258.7,10.947z"/>
		</g>
	</g>
	<g>
		<g>
			<path style="fill:#251426;" d="M273.438,14.075c-0.113,0-0.226-0.02-0.338-0.061c-0.5-0.187-0.755-0.743-0.568-1.242     c1.738-4.652,8.981-4.858,9.289-4.864c0.008,0,0.015,0,0.021,0c0.525,0,0.953,0.419,0.966,0.944     c0.011,0.533-0.411,0.976-0.945,0.988c-0.062,0.001-6.24,0.183-7.519,3.608C274.198,13.836,273.828,14.075,273.438,14.075z"/>
		</g>
	</g>
	<g>
		<g>
			<path style="fill:#251426;" d="M246.33,38.497c-0.511,0-0.938-0.399-0.964-0.914c-0.266-4.959,6.293-8.042,6.572-8.171     c0.479-0.223,1.057-0.013,1.279,0.472c0.225,0.484,0.013,1.059-0.47,1.282c-0.057,0.026-5.649,2.663-5.453,6.313     c0.028,0.533-0.379,0.988-0.913,1.017C246.364,38.497,246.347,38.497,246.33,38.497z"/>
		</g>
	</g>
	<g>
		<g>
			<path style="fill:#251426;" d="M133.012,496.647c-0.572,0-1.072-0.059-1.474-0.192c-1.206-0.404-1.383-1.136-1.381-1.536     c0.002-0.245,0.004-0.755,0.902-1.472c-1.755-0.004-3.272-0.243-3.868-0.958c-0.351-0.423-0.443-0.979-0.251-1.525     c0.902-2.551,8.436-2.911,11.634-2.947c0.004,0,0.008,0,0.011,0c0.528,0,0.96,0.425,0.966,0.955     c0.006,0.534-0.421,0.972-0.955,0.977c-4.247,0.049-8.462,0.694-9.581,1.419c1.159,0.272,4.332,0.136,7.442-0.357     c0.502-0.074,0.972,0.24,1.091,0.73c0.117,0.491-0.162,0.989-0.642,1.143c-1.723,0.557-3.44,1.296-4.313,1.826     c2.472,0.257,9.253-1.972,13.198-3.56c0.487-0.198,1.055,0.04,1.257,0.536c0.2,0.494-0.04,1.057-0.536,1.257     C144.822,493.624,137.092,496.647,133.012,496.647z"/>
		</g>
	</g>
	<g>
		<g>
			<path style="fill:#251426;" d="M317.441,500c-4.079,0-11.81-3.023-13.5-3.704c-0.496-0.2-0.736-0.762-0.536-1.257     c0.2-0.496,0.766-0.734,1.257-0.536c3.943,1.589,10.729,3.828,13.197,3.56c-0.874-0.53-2.591-1.268-4.311-1.826     c-0.479-0.155-0.758-0.653-0.642-1.143s0.585-0.811,1.091-0.73c3.111,0.494,6.289,0.632,7.445,0.355     c-1.108-0.721-5.33-1.368-9.585-1.417c-0.534-0.006-0.96-0.443-0.955-0.977c0.006-0.534,0.415-1.006,0.977-0.955     c3.198,0.036,10.734,0.396,11.634,2.949c0.192,0.543,0.1,1.1-0.251,1.523c-0.596,0.715-2.115,0.955-3.868,0.958     c0.898,0.717,0.9,1.226,0.902,1.472c0.002,0.402-0.175,1.134-1.381,1.536C318.512,499.941,318.012,500,317.441,500z"/>
		</g>
	</g>
	<g>
		<g>
			<path style="fill:#251426;" d="M321.599,221.519c-1.306,0.001-2.789-0.363-4.336-1.102c-1.649-0.786-2.555-2.201-2.549-3.984     c0.008-2.565,1.892-5.725,4.787-8.493c-1.266-1.358-2.819-2.808-4.702-4.331c-6.972-5.641-17.666-3.899-25.344-0.386     c-0.191,0.087-0.377,0.175-0.564,0.263c4.396,4.865,5.115,9.617,3.377,12.807c-1.721,3.158-6.349,5.062-12.453,1.771     c-2.721-1.467-3.238-3.425-3.193-4.808c0.108-3.311,3.564-7.168,9.038-10.268c-1.842-1.666-4.215-3.363-7.228-5.021     c-9.276-5.103-17.657-6.057-24.238-2.768c-2.034,1.017-3.845,2.427-5.394,4.167c8.07,8.297,6.27,14.306,4.962,16.688     c-1.86,3.386-5.781,5.219-8.949,4.165c-2.845-0.947-4.2-3.945-3.625-8.02c0.696-4.929,2.432-9.264,4.996-12.683     c-0.753-0.711-1.562-1.422-2.43-2.129c-12.963-10.554-25.836-7.102-33.563-0.358c-0.245,0.214-0.483,0.431-0.717,0.65     c5.311,4.734,5.434,9.229,5.136,11.25c-0.509,3.447-3.008,6.291-6.074,6.915c-2.515,0.511-4.874-0.615-6.334-3.007     c-2.253-3.688-0.357-9.789,4.406-15.005c-1.132-0.845-2.468-1.698-4.04-2.545c-10.598-5.713-20.512-2.62-26.34,2.443     c1.438,1.438,2.555,3.211,3.285,5.279c1.519,4.309,0.849,8.914-1.56,10.713c-0.962,0.719-3.028,1.6-6.068-0.607     c-3.593-2.603-3.942-7.424-0.891-12.281c0.643-1.025,1.438-2.045,2.366-3.023c-2.049-1.473-4.976-2.541-9.085-2.395     c-6.915,0.256-11.695,1.996-14.204,5.175c-2.434,3.082-1.796,6.45-1.791,6.484c0.104,0.523-0.234,1.031-0.759,1.136     c-0.515,0.102-1.03-0.234-1.136-0.759c-0.034-0.173-0.813-4.284,2.168-8.059c2.877-3.643,8.142-5.631,15.649-5.908     c4.185-0.161,7.785,0.908,10.557,2.974c6.317-5.606,17.157-9.109,28.725-2.873c1.747,0.942,3.228,1.899,4.485,2.855     c0.308-0.293,0.625-0.583,0.951-0.868c8.317-7.263,22.159-10.998,36.052,0.314c0.887,0.723,1.7,1.43,2.443,2.125     c1.696-1.89,3.683-3.427,5.913-4.543c5.002-2.502,13.581-4.048,26.035,2.804c3.364,1.851,6.04,3.801,8.102,5.756     c0.387-0.192,0.781-0.38,1.185-0.565c8.21-3.752,19.704-5.556,27.363,0.642c1.962,1.588,3.596,3.108,4.942,4.545     c1.613-1.323,3.449-2.506,5.394-3.419c6.311-2.966,12.255-2.559,16.742,1.142c0.411,0.34,0.47,0.948,0.13,1.359     c-0.34,0.414-0.947,0.468-1.36,0.131c-5.23-4.314-11.447-2.406-14.691-0.884c-1.828,0.859-3.494,1.942-4.934,3.12     c4.366,5.239,4.776,9.261,3.404,11.435C324.813,220.849,323.371,221.519,321.599,221.519z M320.78,209.397     c-2.576,2.494-4.128,5.194-4.134,7.042c-0.004,1.038,0.47,1.768,1.447,2.235c2.715,1.292,5.03,1.225,5.913-0.168     C324.899,217.089,324.428,213.82,320.78,209.397z M247.567,200.897c-2.281,3.127-3.83,7.079-4.466,11.573     c-0.442,3.123,0.406,5.279,2.323,5.917c1.977,0.658,5.076-0.406,6.645-3.263C254.198,211.249,252.513,206.115,247.567,200.897z      M287.104,204.401c-5.053,2.765-8.464,6.258-8.551,8.919c-0.04,1.236,0.672,2.232,2.179,3.044     c4.232,2.283,8.279,1.874,9.84-0.994C291.806,213.105,291.384,208.947,287.104,204.401z M208.114,199.051     c-4.198,4.557-6.059,9.842-4.262,12.78c1.047,1.717,2.559,2.471,4.3,2.121c2.285-0.465,4.155-2.646,4.547-5.304     C212.948,206.955,212.808,203.185,208.114,199.051z M174.828,199.065c-0.864,0.905-1.602,1.848-2.198,2.799     c-1.962,3.125-2.893,7.311,0.387,9.689c1.07,0.774,2.587,1.515,3.779,0.623c1.485-1.109,2.249-4.682,0.894-8.522     C177.287,202.508,176.447,200.698,174.828,199.065z"/>
		</g>
	</g>
	<g>
		<g>
			<path style="fill:#251426;" d="M398.508,331.502c-0.177,0-0.357-0.048-0.517-0.15c-0.451-0.286-0.585-0.882-0.3-1.333     c0.092-0.144,9.019-14.483,0.311-20.813c-2.936,4.781-7.721,8.418-12.272,7.358c-3.257-0.76-4.013-2.51-4.174-3.486     c-0.33-2.003,1.1-4.264,3.73-5.9c2.876-1.786,7.542-2.859,11.995-0.659c0.194-0.401,0.375-0.812,0.543-1.232     c1.134-2.826,4.076-12.496-5.676-18.258c-1.157-0.683-2.266-1.225-3.328-1.646c-2.323,4.492-5.566,7.705-9.202,7.861     c-4.228,0.19-5.534-1.853-5.883-2.738c-0.719-1.83,0.1-4.105,2.083-5.795c2.447-2.084,6.645-3.313,11.993-1.721     c1.587-3.555,2.643-7.875,2.759-12.188c0.108-4.068-0.608-13.624-9.544-14.484c-0.089-0.008-0.175-0.016-0.262-0.024     c-0.249,1.616-0.666,3.13-1.219,4.438c-1.54,3.648-4.03,5.844-7.011,6.183c-3.26,0.373-5.838-0.523-7.07-2.455     c-0.966-1.518-0.908-3.463,0.16-5.204c0.806-1.314,4.079-5.312,13.44-5.004c0.262-3.799-0.511-7.944-2.834-10.946     c-2.24-2.898-5.608-4.105-9.747-3.503c-1.462,0.214-2.777,0.528-3.959,0.918c0.708,4.004-0.149,8.262-3.466,11.203     c-3.119,2.764-5.11,2.321-6.021,1.807c-1.355-0.767-1.945-2.576-1.545-4.721c0.645-3.448,3.562-7.25,8.778-9.485     c-0.426-1.435-1.074-2.799-1.883-3.987c-2.517-3.691-7.306-6.565-13.181-3.566c-0.472,0.242-1.059,0.056-1.3-0.422     c-0.243-0.475-0.053-1.057,0.421-1.299c7-3.573,12.676-0.17,15.657,4.198c0.892,1.311,1.611,2.812,2.092,4.397     c1.264-0.412,2.64-0.737,4.128-0.955c6.149-0.899,9.678,1.805,11.555,4.232c2.613,3.379,3.496,8.013,3.215,12.248     c0.079,0.008,0.159,0.015,0.238,0.023c7.323,0.705,11.544,6.857,11.289,16.459c-0.113,4.322-1.157,8.899-2.849,12.781     c1.119,0.45,2.281,1.021,3.479,1.729c8.802,5.201,9.123,14.073,6.487,20.642c-0.202,0.505-0.426,1.006-0.672,1.499     c0.042,0.029,0.083,0.059,0.125,0.089c10.283,7.369,0.355,23.3,0.253,23.459C399.141,331.344,398.827,331.502,398.508,331.502z      M391.973,307.218c-2.191,0-4.202,0.691-5.664,1.6c-1.866,1.16-3.036,2.783-2.843,3.945c0.191,1.165,1.777,1.702,2.704,1.919     c3.296,0.763,7.466-2.003,10.189-6.464C394.888,307.509,393.391,307.218,391.973,307.218z M383.082,284.191     c-2.596,0-4.643,0.827-6.008,1.99c-1.326,1.131-1.945,2.585-1.54,3.619c0.413,1.054,1.862,1.608,4.002,1.514     c2.655-0.114,5.351-2.719,7.413-6.563C385.557,284.362,384.263,284.191,383.082,284.191z M378.07,256.17     c-6.049,0-9.519,2.008-10.798,4.095c-0.681,1.112-0.747,2.262-0.177,3.157c0.806,1.265,2.749,1.852,5.221,1.574     c3.045-0.347,4.723-3.292,5.451-5.016c0.475-1.126,0.842-2.419,1.072-3.799C378.578,256.174,378.321,256.17,378.07,256.17z      M360.693,241.43c-4.879,2.193-6.889,5.737-7.3,7.935c-0.242,1.288-0.008,2.342,0.598,2.684c0.594,0.333,1.904,0.098,3.785-1.571     C360.434,248.123,361.181,244.716,360.693,241.43z"/>
		</g>
	</g>
</g>















</svg>
