<svg id="eteHMDT7uvP1" xmlns="http://www.w3.org/2000/svg" xmlns:xlink="http://www.w3.org/1999/xlink" viewBox="0 0 512 512" shape-rendering="geometricPrecision" text-rendering="geometricPrecision"><style><![CDATA[#eteHMDT7uvP5_tr {animation: eteHMDT7uvP5_tr__tr 1000ms linear infinite normal forwards}@keyframes eteHMDT7uvP5_tr__tr { 0% {transform: translate(247.34447px,180.41747px) rotate(7.406421deg)} 20% {transform: translate(247.34447px,180.41747px) rotate(-9.561736deg)} 40% {transform: translate(247.34447px,180.41747px) rotate(1.390693deg)} 100% {transform: translate(247.34447px,180.41747px) rotate(1.390693deg)}} #eteHMDT7uvP8_tr {animation: eteHMDT7uvP8_tr__tr 1000ms linear infinite normal forwards}@keyframes eteHMDT7uvP8_tr__tr { 0% {transform: translate(369.073013px,167.505123px) rotate(-11.913971deg)} 20% {transform: translate(369.073013px,167.505123px) rotate(3.086029deg)} 40% {transform: translate(369.073013px,167.505123px) rotate(-11.913971deg)} 100% {transform: translate(369.073013px,167.505123px) rotate(-11.913971deg)}}]]></style><g id="eteHMDT7uvP2"><path id="eteHMDT7uvP3" d="M471.802,385.913L447.369,369.103C448.068,342.938,442.757,317.29,431.966,295.508C430.38,292.305,428.619,289.057,426.419,285.279L425.208,283.207C423.677,280.654,422.056,278.105,420.384,275.616C427.872,269.654,434.825,263.132,441.195,256.09C475.02,218.664,492.825,168.313,490.041,117.944C488.076,82.379,474.846,53.256,452.791,35.938C436.992,23.539,416.775,16.983,394.328,16.983C390.47,16.983,386.553,17.188,382.681,17.589C364.484,19.476,346.83,25.451,330.488,35.143C312.593,13.346,286.263,0,258.257,0C247.449,0,236.713,1.972,226.342,5.861C201.127,15.321,180.965,37.08,171.024,65.564C167.251,76.373,164.931,88.08,164.044,100.889C162.85,99.657,161.741,98.567,160.735,97.619C160.329,97.232,159.923,96.85,159.514,96.471C153.766,83.287,140.587,74.02,125.382,74.02C104.862,74.02,88.169,90.716,88.169,111.236C88.169,111.714,88.179,112.191,88.196,112.665C83.628,112.02,78.828,112.249,74.253,113.369C64.595,115.725,56.431,121.702,51.27,130.198C46.108,138.694,44.563,148.692,46.92,158.35C51.004,175.067,65.864,186.742,83.065,186.742C86.033,186.742,89.008,186.384,91.891,185.679C92.58,185.512,93.259,185.324,93.928,185.12C96.193,187.268,98.493,189.635,100.734,192.216C101.662,193.292,102.549,194.372,103.399,195.448C102.607,195.845,101.819,196.248,101.038,196.656C78.15,208.586,60.697,223.733,47.668,242.983C45.597,246.053,43.615,249.267,41.827,252.45L41.544,252.968C39.699,256.282,38.071,259.477,36.577,262.726C36.532,262.823,36.485,262.921,36.44,263.018C35.021,266.121,33.68,269.369,32.367,272.871L31.627,274.892C30.273,278.643,29.205,281.889,28.27,285.102C16.957,323.949,20.314,365.278,37.481,398.493C56.633,435.549,99.564,483.754,195.308,502.968C199.214,503.756,203.117,504.473,206.989,505.114C211.168,505.81,215.374,506.458,219.745,507.103L220.728,507.243C224.914,507.854,229.117,508.417,233.334,508.932C233.406,508.942,233.474,508.949,233.546,508.959C250.303,511.002,265.427,511.995,279.776,511.999C279.779,511.999,279.779,511.999,279.779,511.999C297.447,511.999,313.547,510.505,328.99,507.438C329.116,507.414,329.246,507.387,329.375,507.363C335.536,506.125,341.619,504.624,347.408,502.904C349.23,502.368,351.038,501.799,352.87,501.198L353.668,500.942C354.538,500.662,355.404,500.379,356.196,500.103C359.109,499.09,362.002,497.981,364.926,496.8C365.765,496.462,366.601,496.108,367.365,495.784C370.927,494.283,373.885,492.946,376.682,491.578C393.552,483.315,408.259,470.771,419.787,454.918L456.283,450.193C470.956,448.293,482.678,437.771,486.151,423.392C489.624,409.009,483.991,394.299,471.802,385.913Z" transform="matrix(0.994493 -0.104801 0.104801 0.994493 -25.419367 28.238998)" fill="rgb(255,255,255)" stroke="none" stroke-width="1"/><g id="eteHMDT7uvP4"><g id="eteHMDT7uvP5_tr" transform="translate(247.34447,180.41747) rotate(7.406421)"><g id="eteHMDT7uvP5" transform="scale(0.879155,0.879155) translate(-260.373688,-155.240173)"><path id="eteHMDT7uvP6" d="M257.95,284.281C220.844,242.962,197.101,189.827,191.075,134.62C188.865,114.368,189.05,93.429,195.761,74.193C202.473,54.958,216.472,37.546,235.547,30.391C273.056,16.323,310.792,39.309,323.177,74.831C334.764,108.064,333.317,145.652,319.211,177.896" fill="rgb(67,170,153)" stroke="none" stroke-width="1"/></g></g><g id="eteHMDT7uvP7" transform="matrix(0.849929 0.223521 -0.223521 0.849929 89.655635 -53.766709)"><g id="eteHMDT7uvP8_tr" transform="translate(369.073013,167.505123) rotate(-11.913971)"><path id="eteHMDT7uvP8" d="M421.754,238.52C387.118,276.837,336.468,293.149,285.606,291.743C282.717,291.663,279.507,291.367,277.571,289.221C275.737,287.188,275.664,284.168,275.692,281.43C276.004,250.502,272.643,219.511,274.695,188.646C276.889,155.641,285.493,122.427,304.178,95.132C322.863,67.837,352.478,47.061,385.379,43.649C403.336,41.787,422.409,45.401,436.61,56.548C455.133,71.088,462.58,95.877,463.879,119.389C466.265,162.56,450.747,206.446,421.754,238.52Z" transform="scale(0.965598,0.943875) translate(-369.073013,-167.505123)" fill="rgb(94,211,189)" stroke="none" stroke-width="1"/></g></g><path id="eteHMDT7uvP9" d="M456.951,407.499L420.153,382.181C423.335,356.15,419.366,329.098,408.486,307.132C382.217,254.094,324.574,219.193,267.988,207.527C217.295,197.076,160.259,195.338,113.15,219.891C82.332,235.953,63.241,258.729,53.425,292.431C44.45,323.247,45.88,357.683,60.756,386.466C89.718,442.502,151.9,469.417,211.286,479.271C262.536,487.775,317.11,491.581,365.157,468.048C382.194,459.703,395.242,446.401,404.462,430.481L452.915,424.21C461.287,423.126,463.906,412.284,456.951,407.499Z" fill="rgb(254,196,0)" stroke="none" stroke-width="1"/><path id="eteHMDT7uvP10" d="M136.399,111.236C136.399,117.32,131.467,122.252,125.384,122.252C119.3,122.252,114.368,117.32,114.368,111.236C114.368,105.152,119.3,100.221,125.384,100.221C131.467,100.221,136.399,105.152,136.399,111.236Z" fill="rgb(209,142,34)" stroke="none" stroke-width="1"/><g id="eteHMDT7uvP11"><path id="eteHMDT7uvP12" d="M167.176,221.691C167.943,221.93,171.119,215.076,172.796,203.067C174.511,191.157,174.107,173.908,167.952,156.268C161.813,138.623,151.412,124.857,142.667,116.592C133.891,108.226,127.143,104.829,126.691,105.493C126.07,106.319,131.708,111.014,139.231,119.829C146.759,128.577,155.885,141.914,161.647,158.464C167.417,175.012,168.554,191.133,168.092,202.665C167.676,214.248,166.176,221.43,167.176,221.691Z" fill="rgb(209,142,34)" stroke="none" stroke-width="1"/></g><path id="eteHMDT7uvP13" d="M93.776,146.913C95.218,152.823,91.597,158.784,85.686,160.227C79.776,161.669,73.815,158.047,72.373,152.137C70.93,146.227,74.552,140.266,80.462,138.824C86.373,137.381,92.334,141.002,93.776,146.913Z" fill="rgb(209,142,34)" stroke="none" stroke-width="1"/><g id="eteHMDT7uvP14"><path id="eteHMDT7uvP15" d="M146.317,216.898C147.119,216.708,146.739,210.931,143.795,202.101C142.343,197.688,140.117,192.592,137.145,187.187C134.101,181.829,130.282,176.181,125.644,170.761C120.954,165.386,115.92,160.788,111.058,156.999C106.14,153.275,101.419,150.336,97.262,148.262C88.949,144.074,83.286,142.869,82.983,143.635C82.589,144.57,87.516,147.3,94.85,152.32C102.192,157.324,111.778,164.968,120.593,175.126C129.366,185.321,135.54,195.915,139.432,203.903C143.341,211.886,145.335,217.154,146.317,216.898Z" fill="rgb(209,142,34)" stroke="none" stroke-width="1"/></g><g id="eteHMDT7uvP16"><path id="eteHMDT7uvP17" d="M456.951,407.499L420.153,382.181C423.335,356.15,419.366,329.098,408.486,307.132C400.655,291.321,390.002,277.151,377.453,264.699C378.508,316.797,372.284,369.235,352.301,417.465C342.765,440.482,331.002,462.015,318.046,482.802C334.191,480.122,350.003,475.47,365.157,468.048C382.194,459.703,395.242,446.401,404.462,430.481L452.915,424.21C461.287,423.126,463.906,412.284,456.951,407.499Z" fill="rgb(17,75,68)" stroke="none" stroke-width="1"/></g><path id="eteHMDT7uvP18" d="M244.447,203.455C247.471,296.927,220.151,391.103,168.506,469.017C182.597,473.521,197.017,476.904,211.285,479.271C219.63,480.656,228.067,481.893,236.546,482.931C283.419,403.424,308.366,312.643,309.09,220.154C295.638,214.621,281.784,210.372,267.987,207.527C260.273,205.936,252.399,204.58,244.447,203.455Z" fill="rgb(17,75,68)" stroke="none" stroke-width="1"/><g id="eteHMDT7uvP19"><path id="eteHMDT7uvP20" d="M109.085,298.595C109.085,308.128,105.096,315.856,100.175,315.856C95.254,315.856,91.265,308.128,91.265,298.595C91.265,289.062,95.254,281.334,100.175,281.334C105.096,281.334,109.085,289.062,109.085,298.595Z" fill="rgb(209,142,34)" stroke="none" stroke-width="1"/><path id="eteHMDT7uvP21" d="M188.682,298.595C188.682,308.128,184.693,315.856,179.772,315.856C174.851,315.856,170.862,308.128,170.862,298.595C170.862,289.062,174.851,281.334,179.772,281.334C184.693,281.334,188.682,289.062,188.682,298.595Z" fill="rgb(209,142,34)" stroke="none" stroke-width="1"/><g id="eteHMDT7uvP22"><path id="eteHMDT7uvP23" d="M158.602,297.798C157.592,297.931,157.813,301.903,155.362,307.053C154.13,309.584,152.21,312.376,149.413,314.535C146.672,316.703,142.916,318.114,138.834,318.321C134.749,318.484,130.881,317.417,127.956,315.506C124.975,313.608,122.811,311.002,121.356,308.592C118.45,303.685,118.311,299.709,117.293,299.668C116.531,299.489,114.734,303.816,117.07,310.572C118.264,313.845,120.558,317.595,124.409,320.532C128.241,323.513,133.602,325.234,139.136,324.991C144.669,324.733,149.853,322.535,153.4,319.22C156.97,315.947,158.916,312.005,159.809,308.638C161.525,301.698,159.345,297.551,158.602,297.798Z" fill="rgb(209,142,34)" stroke="none" stroke-width="1"/></g></g></g></g></svg>