<?xml version="1.0" encoding="UTF-8"?>
<!-- Generator: Adobe Illustrator 25.2.1, SVG Export Plug-In . SVG Version: 6.00 Build 0)  -->
<svg xmlns="http://www.w3.org/2000/svg" xmlns:xlink="http://www.w3.org/1999/xlink" version="1.1" id="Capa_1" x="0px" y="0px" viewBox="0 0 512 512" style="enable-background:new 0 0 512 512;" xml:space="preserve" width="512" height="512">
<g>
	<g>
		<g>
			<path style="fill:#FFFFFF;" d="M502.911,172.152l-16.074-10.082c-0.247-0.27-0.578-0.765-0.737-1.107l-2.648-18.43     c-1.568-10.924-9.5-15.814-16.668-15.814c-3.456,0-10.008,1.144-15.027,8.801l-3.625,5.524c-0.512-1.591-1.111-3.154-1.783-4.69     l1.381-2.524c2.257-4.12,2.764-8.884,1.426-13.416c-0.053-0.182-0.111-0.364-0.169-0.544c0.889-1.012,1.669-2.138,2.313-3.363     l2.353-4.466c0.313-0.596,0.588-1.204,0.828-1.824c4.547-1.256,8.445-4.27,10.722-8.474l2.474-4.567     c2.464-4.567,2.754-9.975,0.795-14.835c-1.601-3.975-4.61-7.309-8.463-9.383c-10.217-5.507-15.6-8.167-26.171-12.933     c-2.621-1.181-5.534-1.808-8.422-1.808c-1.214,0-2.408,0.121-3.577,0.333c-2.12-3.263-5.259-5.856-8.958-7.284     c-2.295-0.886-3.441-1.319-5.741-2.166c-2.166-0.8-4.428-1.206-6.723-1.206c-4.098,0-7.973,1.28-11.103,3.565     c-1.931-5.889-6.789-10.618-13.113-12.4c-2.27-0.636-3.403-0.947-5.68-1.551c-1.575-0.418-3.196-0.63-4.817-0.63     c-6.004,0-11.41,2.877-14.701,7.442c-1.459-7.566-7.62-13.511-15.529-14.885c-2.53-0.439-3.794-0.65-6.332-1.05     c-1.035-0.164-2.088-0.246-3.126-0.246c-7.064,0-13.398,3.743-16.597,9.788c-0.866,1.591-1.679,3.095-2.469,4.562     c0.16-4.467-1.371-8.774-4.372-12.176c-3.173-3.598-7.778-5.83-12.631-6.124c-2.664-0.162-3.997-0.232-6.645-0.348     c-0.22-0.01-0.619-0.019-0.841-0.019c-5.282,0-10.013,2.199-13.287,5.739c-3.282-3.7-8.129-6.011-13.578-6.011     c-0.116,0-0.331,0.003-0.449,0.005c-2.661,0.064-3.992,0.106-6.655,0.213c-4.883,0.198-9.543,2.359-12.785,5.927     c-3.179,3.5-4.789,8.004-4.532,12.674c0.682,12.438,1.128,20.768,1.626,30.429c-2.109,0.668-4.184,1.436-6.229,2.279     c-0.072-0.814-0.16-1.63-0.285-2.451c-1.772-11.685-2.669-17.526-4.474-29.187c-1.32-8.617-8.733-14.87-17.62-14.87     c-0.964,0-1.939,0.076-2.908,0.227c-2.626,0.414-3.938,0.631-6.562,1.088c-4.837,0.843-9.182,3.594-11.921,7.547     c-0.111,0.163-0.222,0.326-0.328,0.49c-2.871-1.905-6.334-2.995-10.028-2.995c-1.495,0-2.989,0.181-4.433,0.533     c-2.595,0.632-3.89,0.959-6.463,1.631c-4.797,1.251-8.771,4.251-11.192,8.451c-0.811,1.405-1.398,2.891-1.789,4.416     c-4.52-1.994-9.548-3.109-14.836-3.109c-4.666,0-9.301,0.86-13.777,2.551c-7.435,2.811-13.734,7.761-18.039,14.023     c-1.95-0.705-4.053-1.081-6.238-1.081c-2.802,0-5.635,0.65-8.182,1.878c-2.54,1.223-3.807,1.846-6.324,3.113     c-4.961,2.497-8.465,6.894-9.69,11.962c-1.843-0.628-3.764-0.944-5.741-0.944c-3.312,0-6.627,0.928-9.573,2.679     c-2.451,1.455-3.671,2.195-6.095,3.692c-4.267,2.636-7.337,6.886-8.427,11.66c-1.05,4.614-0.242,9.327,2.292,13.291     c2.037,3.172,5.047,5.586,8.564,6.886c8.753,3.673,13.663,5.906,21.129,9.671c2.85,4.958,4.85,8.449,8.205,14.315     c0.46,0.804,0.985,1.558,1.556,2.269c-0.634-0.034-1.272-0.059-1.917-0.059c-4.017,0-7.809,0.649-11.192,1.575     c-9.359-13.574-21.199-15.947-28.324-15.947c-3.838,0-7.781,0.676-11.725,2.011c-9.248,3.129-16.011,9.768-19.043,18.692     c-8.248,24.273,13.805,60.729,21.51,72.367c0.586,0.989,1.293,1.915,2.118,2.76c1.525,1.564,3.347,2.732,5.317,3.474     c-0.018,0.036-0.038,0.07-0.056,0.106l-7.831,16.137c-0.235,0.247-0.636,0.574-0.919,0.745l-17.64,4.811     c-9.349,2.551-13.176,9.465-13.641,15.085c-0.467,5.613,2.164,13.051,10.939,17.096l16.451,7.571     c0.202,0.183,0.46,0.478,0.618,0.708l4.759,17.107c2.78,10.008,10.571,13.559,16.4,13.56c6.604,0,12.484-3.999,15.731-10.69     l7.831-16.138c0.235-0.247,0.636-0.574,0.919-0.745l17.371-4.737c3.146,7.163,7.057,14.262,11.726,21.289l-6.216-6.399     c-4.542-4.677-9.364-5.659-12.608-5.659c-4.353,0-8.405,1.736-11.409,4.886c-2.267,2.382-4.905,6.608-4.587,13.211l0.618,13     l-9.591,9.22c-6.433,6.187-6.607,13.648-4.625,18.569c2.502,6.211,8.541,10.07,15.756,10.07c0,0,0,0,0.003,0     c0.47,0,0.967-0.015,1.495-0.052l9.49-0.647c-3.981,1.84-7.252,5.107-9.068,9.316l-2.383,5.523     c-1.921,4.464-1.979,9.408-0.162,13.925c1.537,3.825,4.262,6.945,7.784,8.968l-11.116,28.503     c-1.765,4.509-1.661,9.419,0.29,13.83c2.01,4.542,5.751,8.046,10.54,9.872c2.775,1.057,4.166,1.576,6.958,2.593     c2.108,0.766,4.302,1.154,6.521,1.154c7.71,0,14.605-4.813,17.158-11.988l10.197-28.718l-8.334,29.315     c-1.32,4.64-0.742,9.514,1.626,13.725c2.409,4.277,6.554,7.493,11.374,8.821c2.883,0.795,4.33,1.182,7.228,1.935     c1.565,0.406,3.171,0.613,4.774,0.613c4.701,0,9.051-1.775,12.32-4.755c0.46,1.136,1.04,2.234,1.74,3.277     c2.742,4.096,6.971,6.88,11.909,7.838c2.924,0.568,4.39,0.841,7.327,1.367c1.111,0.198,2.242,0.299,3.363,0.299     c4.136,0,7.968-1.352,11.055-3.646c3.357,4.21,8.191,6.898,13.656,7.561c12.404,1.506,18.852,2.085,31.361,2.819     c0.376,0.023,0.752,0.033,1.124,0.033c9.839,0,17.925-7.555,18.412-17.199l0.303-5.982c0.285-5.534-2.01-10.641-5.839-14.18     c0.654-1.676,1.065-3.476,1.184-5.356l0.366-5.832c0.083-1.312,0.018-2.602-0.177-3.854c3.822-3.133,6.347-7.806,6.612-13.105     l0.306-6.013c0.095-1.878-0.103-3.705-0.55-5.439c2.163,0.583,4.342,1.146,6.549,1.676c-0.227,1.239-0.336,2.517-0.296,3.824     l1.649,54.455c0.298,9.805,8.4,17.485,18.443,17.485c0.187,0,0.548-0.008,0.735-0.014c2.924-0.112,4.385-0.178,7.314-0.332     c4.991-0.264,9.727-2.515,12.994-6.177c0.227-0.254,0.444-0.512,0.656-0.775c3.562,3.057,8.092,4.728,12.893,4.728     c0.765,0,1.548-0.042,2.196-0.114c3.418-0.342,5.13-0.527,8.69-0.945c4.18-0.532,7.929-2.369,10.808-5.213     c2.652,1.24,5.621,1.929,8.748,1.929c1.222,0,2.457-0.109,3.668-0.32c12.389-2.173,18.761-3.497,30.988-6.439     c4.865-1.17,9.114-4.249,11.659-8.447c2.504-4.132,3.242-8.984,2.08-13.643l-1.454-5.836c-1.328-5.339-4.971-9.613-9.73-11.897     c0.131-1.798-0.013-3.623-0.439-5.423l-0.762-3.231c2.423,2.149,4.95,4.332,7.886,6.821l6.074,19.115     c2.393,7.508,9.374,12.554,17.375,12.554c2.007,0,4.002-0.319,5.928-0.948c2.823-0.923,4.229-1.392,7.041-2.358     c4.741-1.627,8.687-5.096,10.828-9.518c2.106-4.346,2.386-9.241,0.785-13.788l-6.647-18.9     c2.373-10.475,3.653-17.141,5.539-28.595c0.643-3.044,0.476-6.172-0.484-9.159c16.464-5.543,49.447-19.055,57.562-40.424     c3.345-8.805,2.361-18.225-2.77-26.528c-5.532-8.952-13.687-14.488-23.317-15.993c2.469-1.215,4.692-3.071,6.478-5.483     l5.125-6.933l8.816-0.72c8.826-0.721,13.489-6.513,14.911-11.697c1.421-5.178,0.369-12.532-6.844-17.646l-7.029-4.976     l-0.725-8.344c-0.868-10.078-8.607-15.351-15.799-15.351c-4.835,0-9.416,2.262-12.721,6.235c0.031-0.763,0.037-1.52,0.026-2.272     c3.394-0.853,7.565-3.04,11.021-8.303l10.308-15.715c0.328-0.29,0.954-0.677,1.351-0.834l18.968-2.626     c9.692-1.343,14.416-7.744,15.605-13.288C512.846,185.091,511.169,177.33,502.911,172.152z M448.297,299.069     c0.075-0.139,0.146-0.281,0.219-0.421c0.182,0.087,0.362,0.178,0.547,0.258C448.804,298.957,448.553,299.016,448.297,299.069z"/>
		</g>
	</g>
	<g>
		<g>
			<g>
				<path style="fill:#4F021B;" d="M319.464,169.968c-3.994,0.808-7.869-1.735-8.701-5.73c-2.33-11.269-5.967-25.867-13.361-38.467      c-7.108-12.149-17.046-20.993-27.935-24.868c-16.808-5.991-37.896,0.142-50.188,14.597c-0.689,0.832-1.379,1.665-1.997,2.544      c-10.247,13.837-13.48,33.617-8.226,51.353c1.165,3.899-1.046,7.988-4.945,9.153c-0.689,0.214-1.402,0.309-2.092,0.309      c-3.186,0-6.11-2.068-7.061-5.278c-7.085-23.846-2.045-49.76,13.123-67.591c16.357-19.257,43.626-27.032,66.331-18.948      c5.753,2.068,11.245,5.112,16.333,9.034c7.465,5.682,14.074,13.266,19.352,22.253c8.464,14.455,12.505,30.55,15.073,42.936      C326.002,165.237,323.434,169.136,319.464,169.968z"/>
			</g>
			<g>
				<path style="fill:#60041C;" d="M319.464,169.968c-3.994,0.808-7.869-1.735-8.701-5.73c-2.33-11.269-5.967-25.867-13.361-38.467      c-7.108-12.149-17.046-20.993-27.935-24.868c-16.808-5.991-37.896,0.142-50.188,14.597c-0.689,0.832-1.379,1.665-1.997,2.544      c2.283-5.944,10.461-12.339,14.907-15.596c6.086-4.47,13.028-7.774,20.375-9.581c12.624-3.115,26.176-1.831,38.182,3.21      c7.465,5.682,14.074,13.266,19.352,22.253c8.464,14.455,12.505,30.55,15.073,42.936      C326.002,165.237,323.434,169.136,319.464,169.968z"/>
			</g>
		</g>
		<g>
			<path style="fill:#4F021B;" d="M267.627,200.829c-1.415-1.593-14.129-10.769-15.378-11.736     c-12.06-9.34-27.416-16.859-41.681-21.852c-52.607-18.413-108.472,8.289-114.11,67.464     c-6.671,70.011,69.444,124.34,122.095,149.596c24.088,11.555,51.235,17.753,77.704,20.179c3.32,0.304,17.302-10.016,19.728-12.14     c22.059-19.316,36.888-42.634,54.255-66.478c28.909-39.689,66.856-102.75,37.707-150.527     c-6.654-10.907-20.942-19.121-32.171-24.28c-5.257-2.415-16.461-4.447-22.156-5.159c-31.564-3.946-56.046,13.531-74.864,38.14     C273.495,190.914,270.962,193.394,267.627,200.829z"/>
		</g>
		<g>
			<g>
				<path style="fill:#F8627F;" d="M382.792,320.413c-17.236,22.538-34.758,45.576-56.607,63.906l-0.499,0.428      c-2.425,2.021-15.477,13.504-17.902,13.361c-26.533-1.664-52.708-11.031-76.815-22.039      c-52.708-24.06-128.881-75.793-122.201-142.48c5.635-56.369,62.313-82.878,112.168-62.741      c13.932,5.611,26.96,13.409,39.038,22.301c0.262,0.214,1.046,0.809,2.14,1.664c4.018,3.186,12.101,9.676,13.195,10.865      c3.353-7.085,7.37-13.837,12.078-19.685c18.829-23.442,49.142-43.079,80.286-37.659c5.658,0.975,10.936,3.494,16.095,5.991      c11.079,5.373,20.613,13.575,27.269,23.964C440.207,223.793,411.726,282.587,382.792,320.413z"/>
			</g>
			<g>
				<g>
					<path style="fill:#FFDCBD;" d="M275.647,231.289c-14.819,2.906-26.553,17.212-26.502,32.313       c0.051,15.101,11.88,29.329,26.718,32.135c-0.316,12.156,0.705,32.533,13.546,38.601c6.126,2.894,13.826,0.742,17.332-5.127       c3.353-5.614,2.423-12.968,0.694-18.946c-0.537-1.857-6.954-19.725-7.629-19.351c14.008-7.775,20.799-24.272,15.265-39.307       C309.536,236.573,291.368,228.207,275.647,231.289z"/>
				</g>
				<g>
					<path style="fill:#4F021B;" d="M307.431,310.255c1.73,5.988,2.661,13.35-0.687,18.96c-3.504,5.855-11.199,8.028-17.342,5.123       c-0.554-0.266-1.087-0.554-1.574-0.865c1.685-1.042,3.127-2.484,4.191-4.258c3.349-5.61,2.417-12.972,0.687-18.96       c-0.532-1.818-6.808-19.337-7.606-19.337c13.993-7.806,20.779-24.282,15.257-39.318c-3.903-10.6-14.104-17.896-25.281-20.18       c0.2-0.044,0.377-0.089,0.577-0.133c15.723-3.082,33.885,5.278,39.406,20.313c5.544,15.035-1.242,31.512-15.235,39.318       C300.623,290.918,306.899,308.437,307.431,310.255z"/>
				</g>
			</g>
			<g>
				<g>
					<path style="fill:#FFE7E7;" d="M348.896,173.826c0.6,2.975,2.741,5.457,5.27,7.134c3.111,2.062,6.802,3.043,10.187,4.549       c4.53,2.015,8.822,4.607,11.901,8.582c3.413,4.406,4.899,10.113,9.015,14.013c6.858,6.498,14.628,0.55,16.324-7.167       c4.472-20.349-26.587-48.493-46.404-38.493C351.033,164.541,347.977,169.253,348.896,173.826z"/>
				</g>
				<g>
					<path style="fill:#FFE7E7;" d="M414.218,224.498c0,4.584-3.716,8.3-8.3,8.3c-4.584,0-8.3-3.716-8.3-8.3s3.716-8.3,8.3-8.3       C410.502,216.198,414.218,219.914,414.218,224.498z"/>
				</g>
			</g>
			<g>
				<path style="fill:#F44770;" d="M326.185,384.318l-0.499,0.428c-2.425,2.021-15.477,13.504-17.902,13.361      c-26.533-1.664-52.708-11.031-76.815-22.039c-52.708-24.06-128.881-75.793-122.201-142.48      c5.635-56.369,62.313-82.878,112.168-62.741c13.932,5.611,26.96,13.409,39.038,22.301c0.262,0.214,1.046,0.809,2.14,1.664      c-2.045,0.904-25.748-13.076-29.433-14.431c-10.722-3.947-22.229-5.944-33.593-4.042c-40.969,6.857-56.342,55.072-43.586,90.245      c7.889,21.751,24.181,41.079,41.726,55.82c33.595,28.226,74.354,47.705,116.517,59.15      C315.52,382.035,325.964,384.51,326.185,384.318z"/>
			</g>
		</g>
	</g>
	<g>
		<g>
			<g>
				<g>
					<path style="fill:#FFACB3;" d="M93.86,77.432c1.821-0.877,3.894-0.362,4.635,1.194c0.258,0.541,0.353,1.158,0.172,1.824       c-1.828,11.527-2.536,17.275-3.548,28.698c3.914,7.383,5.867,11.077,9.766,18.468c0.803,1.525,0.197,3.278-1.279,4.071       c-1.969,1.056-2.951,1.592-4.906,2.682c-1.464,0.816-3.279,0.387-4.134-1.109c-4.15-7.253-6.229-10.878-10.394-18.123       c-10.254-5.258-15.542-7.722-26.416-12.279c-0.671-0.198-1.151-0.603-1.475-1.108c-0.927-1.452-0.238-3.481,1.499-4.554       c2.339-1.445,3.513-2.157,5.872-3.558c1.193-0.708,2.42-0.819,3.475-0.307c6.883,3.303,10.26,5.026,16.881,8.608       c0.498-7.477,0.83-11.232,1.661-18.762c0.118-1.155,0.862-2.124,2.095-2.744C90.195,79.21,91.414,78.61,93.86,77.432z"/>
				</g>
				<g>
					<path style="fill:#FFACB3;" d="M157.438,88.638c3.177,10.068-2.134,21.439-12.806,25.468       c-10.67,4.027-22.268-0.955-26.601-10.582c-2.436-5.408-3.656-8.111-6.1-13.515c-4.347-9.621,0.913-22.243,13.212-26.893       c12.298-4.651,24.627,1.322,27.818,11.385C154.756,80.155,155.651,82.982,157.438,88.638z M140.972,78.47       c-1.476-4.163-6.676-6.887-11.824-4.94c-5.063,1.914-7.216,7.415-5.535,11.5c2.259,5.484,3.387,8.227,5.638,13.714       c1.647,4.017,6.783,6.684,11.42,4.933c4.714-1.781,6.723-7.065,5.253-11.23C143.947,86.854,142.957,84.059,140.972,78.47z"/>
				</g>
				<g>
					<path style="fill:#FFACB3;" d="M211.788,74.824c1.649,10.884-4.268,21.99-16.278,24.488       c-12.007,2.498-21.978-5.221-24.9-15.911c-3.112-11.383-4.677-17.072-7.821-28.446c-0.439-1.589,0.619-3.195,2.46-3.676       c2.489-0.65,3.735-0.964,6.233-1.573c1.849-0.452,3.646,0.436,4.032,2.038c2.796,11.619,4.185,17.431,6.948,29.058       c1.349,5.682,5.509,8.529,10.724,7.445c5.769-1.2,7.631-6.22,6.728-11.079c-2.186-11.749-3.287-17.622-5.507-29.365       c-0.306-1.62,0.967-3.148,2.836-3.474c2.528-0.441,3.793-0.65,6.327-1.05c1.874-0.295,3.5,0.752,3.752,2.381       C209.124,57.325,210.018,63.157,211.788,74.824z"/>
				</g>
				<g>
					<path style="fill:#FFACB3;" d="M289.06,38.828c1.899,0.115,3.352,1.568,3.247,3.213c-1.199,18.801-1.82,28.201-3.103,46.995       c-0.119,1.719-1.538,2.894-3.182,2.793c-2.224-0.137-3.336-0.195-5.56-0.295c-1.647-0.074-2.857-1.39-2.796-3.112       c0.259-7.453,0.386-11.18,0.632-18.633c-7.529-0.273-11.295-0.313-18.819-0.198c0.139,7.456,0.204,11.185,0.33,18.641       c0.028,1.723-1.203,3.012-2.849,3.051c-2.221,0.052-3.332,0.087-5.552,0.176c-1.642,0.066-3.037-1.138-3.122-2.859       c-0.945-18.815-1.438-28.222-2.468-47.033c-0.09-1.646,1.373-3.069,3.27-3.145c2.564-0.103,3.846-0.145,6.412-0.207       c1.9-0.046,3.377,1.28,3.411,2.929c0.148,6.947,0.218,10.421,0.354,17.368c7.753-0.12,11.634-0.08,19.391,0.201       c0.223-6.945,0.331-10.418,0.542-17.363c0.05-1.648,1.538-2.944,3.441-2.86C285.208,38.604,286.492,38.672,289.06,38.828z"/>
				</g>
				<g>
					<path style="fill:#FFACB3;" d="M343.394,96.019c0.01,0.31-0.057,0.602-0.158,1.041c-0.384,1.678-1.997,2.686-3.775,2.291       c-1.947-0.433-2.922-0.642-4.873-1.046c-1.705-0.351-2.893-1.654-3.049-3.363c-0.415-3.713-0.637-5.571-1.112-9.286       c-5.744-1.077-8.625-1.556-14.394-2.394c-1.663,3.361-2.481,5.046-4.089,8.424c-0.693,1.568-2.234,2.416-3.872,2.209       c-1.937-0.245-2.906-0.36-4.844-0.577c-1.795-0.201-2.991-1.677-2.819-3.39c0.046-0.448,0.076-0.746,0.186-1.036       c7.944-17.85,12.3-26.678,21.761-44.056c0.753-1.478,2.524-2.276,4.501-1.964c2.445,0.386,3.667,0.588,6.108,1.013       c1.976,0.344,3.407,1.673,3.667,3.32C340.2,66.749,341.551,76.532,343.394,96.019z M326.87,61.762       c-2.376,4.494-3.541,6.749-5.821,11.275c3.119,0.483,4.677,0.742,7.789,1.294C328.105,69.303,327.712,66.789,326.87,61.762z"/>
				</g>
				<g>
					<path style="fill:#FFACB3;" d="M407.602,64.948c1.898,0.732,2.929,2.673,2.306,4.279c-0.137,0.349-0.357,0.665-0.524,0.84       c-13.282,14.745-19.579,22.344-31.455,37.918c-0.944,1.258-2.639,1.783-4.227,1.252c-2.087-0.697-3.133-1.038-5.227-1.701       c-1.597-0.506-2.734-1.949-2.761-3.523c-0.474-19.589-1.135-29.451-3.323-49.214c-0.031-0.239-0.028-0.627,0.063-0.989       c0.419-1.666,2.353-2.645,4.301-2.127c2.194,0.583,3.29,0.882,5.478,1.497c1.853,0.521,3.22,2.089,3.315,3.757       c0.879,13.49,1.126,20.218,1.24,33.609c7.877-10.794,11.975-16.11,20.483-26.558c1.037-1.3,2.975-1.799,4.795-1.128       C404.285,63.677,405.393,64.095,407.602,64.948z"/>
				</g>
				<g>
					<path style="fill:#FFACB3;" d="M430.607,86.986c-1.5,3.2-2.251,4.8-3.755,7.998c4.902,2.336,7.338,3.55,12.178,6.074       c1.66,0.866,2.404,2.708,1.638,4.165c-0.934,1.776-1.401,2.664-2.336,4.44c-0.768,1.458-2.661,1.89-4.273,1.049       c-4.7-2.452-7.066-3.632-11.827-5.901c-1.839,3.902-2.759,5.852-4.601,9.752c6.402,3.052,9.576,4.663,15.863,8.056       c1.559,0.841,2.169,2.717,1.377,4.164c-0.991,1.813-1.487,2.719-2.478,4.532c-0.829,1.511-2.655,1.955-4.165,1.139       c-8.648-4.668-13.033-6.835-21.899-10.838c-2.43-1.097-3.373-3.79-2.423-5.99c6.949-16.084,10.406-24.134,17.287-40.248       c0.471-1.102,1.49-1.879,2.679-2.263c1.17-0.378,2.663-0.296,3.935,0.278c10.222,4.607,15.278,7.102,25.248,12.475       c1.741,0.938,2.536,2.831,1.717,4.346c-0.984,1.817-1.476,2.726-2.46,4.542c-0.785,1.449-2.791,1.881-4.483,0.968       C441.002,92.043,437.556,90.296,430.607,86.986z"/>
				</g>
			</g>
		</g>
		<g>
			<g>
				<g>
					<path style="fill:#FFACB3;" d="M124.557,401.863c-0.577,1.825-2.55,2.846-4.397,2.245c-4.54-1.475-6.802-2.245-11.309-3.845       c-6.011,16.927-9.016,25.391-15.027,42.318c-0.67,1.887-2.812,2.697-4.846,1.957c-2.707-0.986-4.058-1.489-6.753-2.516       c-2.12-0.807-3.12-2.787-2.392-4.653c6.527-16.735,9.79-25.103,16.317-41.837c-4.468-1.743-6.693-2.646-11.125-4.514       c-1.805-0.761-2.641-2.828-1.883-4.586c0.951-2.206,1.427-3.309,2.378-5.514c0.792-1.838,2.791-2.586,4.543-1.847       c13.471,5.68,20.305,8.222,34.105,12.706c1.793,0.583,2.804,2.453,2.201,4.362       C125.643,398.428,125.281,399.573,124.557,401.863z"/>
				</g>
				<g>
					<path style="fill:#FFACB3;" d="M181.254,405.73c1.84,0.329,3.067,2.127,2.745,4.014c-3.687,21.584-5.531,32.375-9.218,53.959       c-0.337,1.974-2.292,3.142-4.397,2.765c-2.848-0.51-4.27-0.775-7.111-1.327c-2.1-0.408-3.406-2.183-3.009-4.146       c1.718-8.496,2.577-12.744,4.295-21.24c-8.569-1.733-12.838-2.701-21.336-4.839c-2.115,8.406-3.173,12.609-5.289,21.015       c-0.489,1.942-2.436,2.979-4.513,2.439c-2.809-0.73-4.212-1.106-7.013-1.878c-2.074-0.572-3.342-2.472-2.795-4.398       c5.988-21.062,8.981-31.593,14.969-52.654c0.523-1.841,2.414-2.931,4.227-2.431c2.449,0.675,3.675,1.003,6.131,1.642       c1.816,0.472,2.82,2.339,2.353,4.195c-1.971,7.832-2.956,11.748-4.927,19.58c8.263,2.08,12.414,3.021,20.746,4.705       c1.601-7.916,2.401-11.874,4.002-19.79c0.38-1.876,2.088-3.128,3.924-2.771C177.521,405.053,178.765,405.285,181.254,405.73z"/>
				</g>
				<g>
					<path style="fill:#FFACB3;" d="M211.584,423.433c-0.42,4.086-0.63,6.13-1.05,10.216c5.706,0.586,8.564,0.834,14.282,1.239       c1.962,0.139,3.457,1.714,3.337,3.624c-0.147,2.328-0.22,3.492-0.366,5.82c-0.12,1.912-1.846,3.286-3.862,3.143       c-5.879-0.416-8.815-0.671-14.681-1.274c-0.513,4.987-0.769,7.48-1.281,12.467c8.345,0.858,12.527,1.195,20.896,1.685       c2.072,0.121,3.673,1.769,3.576,3.681c-0.122,2.399-0.182,3.598-0.304,5.997c-0.102,2-1.903,3.391-4.031,3.266       c-12.205-0.715-18.302-1.263-30.452-2.739c-3.33-0.404-5.425-3.148-5.056-5.908c2.694-20.186,4.042-30.279,6.736-50.464       c0.184-1.38,0.977-2.593,1.988-3.425c1.013-0.834,2.407-1.27,3.731-1.11c10.631,1.291,15.965,1.77,26.643,2.396       c1.862,0.109,3.297,1.663,3.196,3.661c-0.122,2.399-0.183,3.598-0.304,5.997c-0.097,1.912-1.732,3.399-3.65,3.286       C223.181,424.539,219.31,424.227,211.584,423.433z"/>
				</g>
				<g>
					<path style="fill:#FFACB3;" d="M275.498,473.782c-2.13,0.081-3.9-1.347-3.958-3.261c-0.66-21.781-0.99-32.672-1.649-54.454       c-0.061-2,1.404-3.524,3.268-3.595c2.486-0.095,3.729-0.151,6.214-0.282c1.863-0.098,3.46,1.287,3.581,3.284       c0.509,8.409,0.764,12.613,1.273,21.022c0.038-0.002,0.057-0.003,0.095-0.006c6.839-9.518,10.071-14.345,16.153-24.097       c0.766-1.302,2.029-2.046,3.532-2.213c2.831-0.313,4.245-0.482,7.071-0.842c1.854-0.236,3.451,0.952,3.696,2.762       c0.093,0.69-0.079,1.415-0.433,2.165c-6.572,10.993-10.096,16.434-17.612,27.153c9.323,9.565,14.217,14.236,24.454,23.297       c0.579,0.537,0.974,1.185,1.068,1.876c0.245,1.81-1.182,3.412-3.302,3.682c-3.316,0.388-4.975,0.568-8.295,0.9       c-1.718,0.19-3.2-0.269-4.332-1.378c-8.687-8.108-12.859-12.262-20.85-20.733c-0.193,0.012-0.29,0.018-0.483,0.029       c0.503,8.305,0.754,12.457,1.258,20.761c0.116,1.912-1.518,3.494-3.648,3.606C279.76,473.609,278.339,473.674,275.498,473.782z       "/>
				</g>
				<g>
					<path style="fill:#FFACB3;" d="M341.186,417.623c0.784,4.033,1.176,6.049,1.96,10.082c5.654-1.1,8.476-1.695,14.102-2.976       c1.93-0.44,3.829,0.63,4.27,2.493c0.536,2.27,0.803,3.405,1.339,5.675c0.44,1.864-0.823,3.683-2.807,4.135       c-5.783,1.317-8.683,1.929-14.495,3.059c0.957,4.921,1.436,7.381,2.392,12.302c8.27-1.608,12.392-2.504,20.603-4.48       c2.033-0.489,4.057,0.619,4.519,2.476c0.581,2.331,0.871,3.496,1.452,5.827c0.484,1.943-0.848,3.801-2.936,4.303       c-11.974,2.882-17.998,4.133-30.089,6.252c-3.314,0.581-6.119-1.436-6.567-4.184c-3.279-20.099-4.918-30.149-8.197-50.248       c-0.224-1.374,0.184-2.765,0.912-3.855c0.729-1.092,1.94-1.915,3.257-2.146c10.578-1.854,15.849-2.948,26.325-5.47       c1.827-0.44,3.663,0.626,4.147,2.568c0.581,2.331,0.871,3.496,1.452,5.827c0.462,1.858-0.682,3.758-2.564,4.211       C352.659,415.305,348.842,416.135,341.186,417.623z"/>
				</g>
				<g>
					<path style="fill:#FFACB3;" d="M411.952,383.754c1.854-0.719,3.948,0.132,4.688,1.993c0.257,0.646,0.345,1.361,0.143,2.096       c-2.117,12.893-3.393,19.361-6.388,32.298c3.224,9.162,4.835,13.742,8.059,22.904c0.665,1.889-0.496,3.867-2.542,4.569       c-2.728,0.936-4.095,1.393-6.834,2.288c-2.054,0.671-4.17-0.21-4.776-2.119c-2.942-9.256-4.412-13.884-7.354-23.14       c-10.161-8.532-15.054-12.934-24.448-21.969c-0.601-0.466-0.96-1.09-1.145-1.76c-0.53-1.931,0.613-3.867,2.513-4.406       c2.555-0.725,3.831-1.097,6.378-1.862c1.29-0.388,2.499-0.121,3.435,0.774c6.131,5.797,9.276,8.646,15.721,14.234       c1.781-8.342,2.581-12.512,4.001-20.838c0.213-1.28,1.022-2.222,2.292-2.692C408.204,385.196,409.456,384.722,411.952,383.754z       "/>
				</g>
			</g>
		</g>
	</g>
	<g>
		<path style="fill:#FFDCBD;" d="M62.98,252.185c1.003,3.601,4.641,7.844,8.086,9.431l16.843,7.755    c3.445,1.586,3.252,3.707-0.432,4.711l-18.006,4.911c-3.682,1.005-8.041,4.597-9.683,7.981l-8.03,16.545    c-1.643,3.384-3.807,3.209-4.809-0.392l-4.897-17.6c-1.002-3.599-4.64-7.843-8.086-9.429l-16.843-7.754    c-3.446-1.587-3.25-3.707,0.432-4.712l18.006-4.911c3.683-1.006,8.041-4.597,9.684-7.982l8.031-16.544    c1.642-3.385,3.806-3.208,4.807,0.393L62.98,252.185z"/>
	</g>
	<g>
		<g>
			<path style="fill:#F8627F;" d="M472.765,322.958c-11.174-18.079-31.969-5.249-34.631-3.808     c-1.165-2.984-8.805-25.797-28.814-19.026c-29.591,10.013,9.447,68.805,10.489,70.365c-0.003,0.009-0.008,0.023-0.008,0.023     s0.008-0.002,0.02-0.006c0.007,0.01,0.011,0.017,0.011,0.017s0.005-0.014,0.008-0.024     C421.632,369.964,489.188,349.534,472.765,322.958z"/>
		</g>
		<g>
			<path style="fill:#F8627F;" d="M97.748,166.889c-11.062-17.898-31.65-5.196-34.285-3.77c-1.153-2.955-8.716-25.539-28.526-18.836     c-29.295,9.913,9.353,68.117,10.384,69.662c-0.002,0.009-0.007,0.023-0.007,0.023s0.007-0.003,0.019-0.006     c0.006,0.01,0.011,0.017,0.011,0.017s0.005-0.014,0.007-0.023C47.125,213.425,114.007,193.2,97.748,166.889z"/>
		</g>
		<g>
			<path style="fill:#FFDCBD;" d="M471.383,162.54c0.56,3.897,3.787,8.821,7.17,10.944l16.543,10.378     c3.384,2.122,2.896,4.311-1.088,4.862l-19.471,2.695c-3.982,0.552-9.02,3.714-11.193,7.027l-10.625,16.195     c-2.174,3.312-4.41,2.837-4.97-1.06l-2.734-19.046c-0.56-3.895-3.786-8.819-7.171-10.942l-16.543-10.376     c-3.384-2.124-2.894-4.312,1.089-4.863l19.471-2.694c3.983-0.552,9.02-3.714,11.194-7.027l10.625-16.194     c2.173-3.314,4.409-2.836,4.968,1.06L471.383,162.54z"/>
		</g>
		<g>
			<path style="fill:#FFDCBD;" d="M91.935,324.312c2.052,2.111,6.167,3.672,9.147,3.469l14.569-0.992     c2.98-0.204,3.646,1.336,1.478,3.419l-10.595,10.187c-2.166,2.084-3.824,6.211-3.683,9.17l0.69,14.466     c0.141,2.959-1.421,3.654-3.472,1.543l-10.024-10.32c-2.051-2.11-6.166-3.672-9.147-3.468L66.33,352.78     c-2.981,0.202-3.645-1.337-1.478-3.421l10.595-10.187c2.166-2.084,3.825-6.211,3.683-9.171l-0.689-14.466     c-0.142-2.96,1.421-3.653,3.471-1.542L91.935,324.312z"/>
		</g>
		<g>
			<path style="fill:#FFDCBD;" d="M468.964,255.061c0.198,2.278,1.909,5.24,3.803,6.58l9.257,6.557     c1.894,1.34,1.539,2.595-0.789,2.785l-11.381,0.929c-2.327,0.191-5.352,1.861-6.72,3.711l-6.689,9.048     c-1.369,1.85-2.65,1.502-2.848-0.776l-0.967-11.135c-0.198-2.277-1.909-5.238-3.803-6.579l-9.258-6.556     c-1.894-1.342-1.538-2.595,0.79-2.785l11.381-0.929c2.328-0.191,5.352-1.861,6.721-3.712l6.689-9.047     c1.368-1.851,2.649-1.502,2.847,0.776L468.964,255.061z"/>
		</g>
	</g>
</g>















</svg>
