<svg id="ejPxc4WpFNG1" xmlns="http://www.w3.org/2000/svg" xmlns:xlink="http://www.w3.org/1999/xlink" viewBox="0 0 512 512.00077" shape-rendering="geometricPrecision" text-rendering="geometricPrecision"><style><![CDATA[#ejPxc4WpFNG2_tr {animation: ejPxc4WpFNG2_tr__tr 3000ms linear infinite normal backwards}@keyframes ejPxc4WpFNG2_tr__tr { 0% {transform: translate(256.000488px,256px) rotate(0deg)} 100% {transform: translate(256.000488px,256px) rotate(-180deg)}} #ejPxc4WpFNG4_ts {animation: ejPxc4WpFNG4_ts__ts 3000ms linear infinite normal backwards}@keyframes ejPxc4WpFNG4_ts__ts { 0% {transform: translate(256px,256px) scale(1,1)} 50% {transform: translate(256px,256px) scale(0.917125,0.940665)} 100% {transform: translate(256px,256px) scale(0.921945,0.945611)}} #ejPxc4WpFNG5_ts {animation: ejPxc4WpFNG5_ts__ts 3000ms linear infinite normal backwards}@keyframes ejPxc4WpFNG5_ts__ts { 0% {transform: translate(177.900391px,269.800781px) scale(1,1)} 50% {transform: translate(177.900391px,269.800781px) scale(0.917125,0.940665)} 100% {transform: translate(177.900391px,269.800781px) scale(0.921945,0.945611)}} #ejPxc4WpFNG6_ts {animation: ejPxc4WpFNG6_ts__ts 3000ms linear infinite normal backwards}@keyframes ejPxc4WpFNG6_ts__ts { 0% {transform: translate(256px,268.828125px) scale(1,1)} 0.666667% {transform: translate(256px,268.828125px) scale(1,1)} 60% {transform: translate(256px,268.828125px) scale(0.676832,0.676832)} 100% {transform: translate(256px,268.828125px) scale(0.954662,0.954662)}} #ejPxc4WpFNG7_to {animation: ejPxc4WpFNG7_to__to 3000ms linear infinite normal backwards}@keyframes ejPxc4WpFNG7_to__to { 0% {transform: translate(159.167969px,268.828125px)} 33.333333% {transform: translate(159.167969px,264.828125px)} 66.666667% {transform: translate(159.167969px,268.828125px)} 100% {transform: translate(159.167969px,265.828125px)}} #ejPxc4WpFNG8_to {animation: ejPxc4WpFNG8_to__to 3000ms linear infinite normal backwards}@keyframes ejPxc4WpFNG8_to__to { 0% {transform: translate(352.833984px,268.828125px)} 33.333333% {transform: translate(352.833984px,264.828125px)} 66.666667% {transform: translate(352.833984px,268.828125px)} 100% {transform: translate(352.833984px,265.828125px)}} #ejPxc4WpFNG10_ts {animation: ejPxc4WpFNG10_ts__ts 3000ms linear infinite normal backwards}@keyframes ejPxc4WpFNG10_ts__ts { 0% {transform: translate(339.091797px,241.191406px) scale(1,1)} 0.666667% {transform: translate(339.091797px,241.191406px) scale(1,1)} 26.666667% {transform: translate(339.091797px,241.191406px) scale(0.808264,0.731918)} 66.666667% {transform: translate(339.091797px,241.191406px) scale(0.812312,0.76245)} 100% {transform: translate(339.091797px,241.191406px) scale(0.863643,0.915079)}} #ejPxc4WpFNG11_ts {animation: ejPxc4WpFNG11_ts__ts 3000ms linear infinite normal backwards}@keyframes ejPxc4WpFNG11_ts__ts { 0% {transform: translate(172.910156px,241.191406px) scale(1,0.999992)} 0.666667% {transform: translate(172.910156px,241.191406px) scale(1,0.999992)} 26.666667% {transform: translate(172.910156px,241.191406px) scale(0.808264,0.73191)} 66.666667% {transform: translate(172.910156px,241.191406px) scale(0.812312,0.762442)} 100% {transform: translate(172.910156px,241.191406px) scale(0.863643,0.915066)}}]]></style><g id="ejPxc4WpFNG2_tr" transform="translate(256.000488,256) rotate(0)"><path id="ejPxc4WpFNG2" d="M503.765625,276.285156L468.183594,312.871094L480.714844,362.304688C484.589844,377.59375,475.578125,393.1875,460.398438,397.460938L411.289062,411.289062L397.460938,460.398438C393.1875,475.578125,377.59375,484.589844,362.304688,480.714844L312.871094,468.183594L276.285156,503.765625C264.992188,514.746094,247.007812,514.746094,235.714844,503.765625L199.128906,468.183594L149.695312,480.714844C134.40625,484.589844,118.8125,475.578125,114.539062,460.398438L100.710938,411.289062L51.601562,397.460938C36.421875,393.1875,27.410156,377.59375,31.285156,362.304688L43.816406,312.871094L8.238281,276.285156C-2.746094,264.992188,-2.746094,247.007812,8.238281,235.714844L43.816406,199.128906L31.285156,149.695312C27.410156,134.40625,36.421875,118.8125,51.601562,114.539062L100.710938,100.710938L114.539062,51.601562C118.8125,36.421875,134.40625,27.410156,149.695312,31.285156L199.128906,43.816406L235.714844,8.234375C247.007812,-2.746094,264.992188,-2.746094,276.285156,8.234375L312.871094,43.816406L362.308594,31.285156C377.59375,27.410156,393.1875,36.421875,397.460938,51.601562L411.289062,100.710938L460.398438,114.539062C475.578125,118.8125,484.589844,134.40625,480.714844,149.695312L468.183594,199.128906L503.765625,235.714844C514.746094,247.007812,514.746094,264.992188,503.765625,276.285156ZM503.765625,276.285156" transform="translate(-256.000488,-256)" fill="rgb(255,222,85)" stroke="none" stroke-width="1"/></g><path id="ejPxc4WpFNG3" d="M227.050781,357.875C136.046875,247.117188,158.648438,91.042969,173.347656,37.28125L149.695312,31.285156C134.40625,27.410156,118.816406,36.421875,114.539062,51.601562L100.710938,100.710938L51.601562,114.539062C36.421875,118.8125,27.410156,134.40625,31.285156,149.695312L43.816406,199.128906L8.238281,235.714844C-2.746094,247.007812,-2.746094,264.992188,8.238281,276.285156L43.816406,312.871094L31.285156,362.304688C27.410156,377.59375,36.421875,393.1875,51.601562,397.460938L100.710938,411.289062L114.539062,460.398438C118.8125,475.578125,134.40625,484.589844,149.695312,480.714844L199.128906,468.183594L235.71875,503.765625C247.011719,514.746094,264.992188,514.746094,276.285156,503.765625L298.46875,482.191406C284.234375,443.234375,261.910156,400.300781,227.050781,357.875ZM227.050781,357.875" fill="rgb(255,199,87)" stroke="none" stroke-width="1"/><g id="ejPxc4WpFNG4_ts" transform="translate(256,256) scale(1,1)"><path id="ejPxc4WpFNG4" d="M431.792969,256C431.792969,353.089844,353.089844,431.792969,256,431.792969C158.914062,431.792969,80.207031,353.089844,80.207031,256C80.207031,158.910156,158.914062,80.207031,256,80.207031C353.089844,80.207031,431.792969,158.910156,431.792969,256ZM431.792969,256" transform="translate(-256,-256)" fill="rgb(255,235,153)" stroke="none" stroke-width="1"/></g><g id="ejPxc4WpFNG5_ts" transform="translate(177.900391,269.800781) scale(1,1)"><path id="ejPxc4WpFNG5" d="M227.050781,357.875C162.902344,279.804688,155.203125,179.210938,161.394531,107.808594C112.570312,139.042969,80.207031,193.742188,80.207031,256C80.207031,353.089844,158.914062,431.792969,256,431.792969C262.617188,431.792969,269.167969,431.425781,275.59375,430.714844C262.992188,406.835938,247.09375,382.269531,227.050781,357.875ZM227.050781,357.875" transform="translate(-177.900391,-269.800781)" fill="rgb(255,227,108)" stroke="none" stroke-width="1"/></g><g id="ejPxc4WpFNG6_ts" transform="translate(256,268.828125) scale(1,1)"><path id="ejPxc4WpFNG6" d="M256,297.777344C240.011719,297.777344,227.050781,284.816406,227.050781,268.828125L227.050781,247.78125C227.050781,243.417969,230.589844,239.878906,234.953125,239.878906L277.046875,239.878906C281.410156,239.878906,284.949219,243.417969,284.949219,247.78125L284.949219,268.828125C284.949219,284.816406,271.988281,297.777344,256,297.777344ZM256,297.777344" transform="translate(-256,-268.828125)" fill="rgb(87,86,92)" stroke="none" stroke-width="1"/></g><g id="ejPxc4WpFNG7_to" transform="translate(159.167969,268.828125)"><path id="ejPxc4WpFNG7" d="M190.046875,268.828125C190.046875,255.25,176.222656,244.238281,159.167969,244.238281C142.113281,244.238281,128.289062,255.25,128.289062,268.828125C128.289062,282.410156,142.113281,293.417969,159.167969,293.417969C176.222656,293.417969,190.046875,282.410156,190.046875,268.828125ZM190.046875,268.828125" transform="translate(-159.167969,-268.828125)" fill="rgb(255,166,187)" stroke="none" stroke-width="1"/></g><g id="ejPxc4WpFNG8_to" transform="translate(352.833984,268.828125)"><path id="ejPxc4WpFNG8" d="M383.710938,268.828125C383.710938,255.25,369.886719,244.238281,352.832031,244.238281C335.78125,244.238281,321.957031,255.25,321.957031,268.828125C321.957031,282.410156,335.78125,293.417969,352.832031,293.417969C369.886719,293.417969,383.710938,282.410156,383.710938,268.828125ZM383.710938,268.828125" transform="translate(-352.833984,-268.828125)" fill="rgb(255,166,187)" stroke="none" stroke-width="1"/></g><g id="ejPxc4WpFNG9" transform="matrix(1.134006 0 0 1.134006 -34.305536 -32.321096)"><g id="ejPxc4WpFNG10_ts" transform="translate(339.091797,241.191406) scale(1,1)"><path id="ejPxc4WpFNG10" d="M339.089844,255.332031C334.824219,255.332031,331.367188,251.871094,331.367188,247.605469L331.367188,234.777344C331.367188,230.511719,334.824219,227.050781,339.089844,227.050781C343.359375,227.050781,346.816406,230.511719,346.816406,234.777344L346.816406,247.605469C346.816406,251.871094,343.359375,255.332031,339.089844,255.332031ZM339.089844,255.332031" transform="translate(-339.091797,-241.191406)" fill="rgb(87,86,92)" stroke="none" stroke-width="1"/></g><g id="ejPxc4WpFNG11_ts" transform="translate(172.910156,241.191406) scale(1,0.999992)"><path id="ejPxc4WpFNG11" d="M172.910156,255.332031C168.640625,255.332031,165.183594,251.871094,165.183594,247.605469L165.183594,234.777344C165.183594,230.511719,168.640625,227.050781,172.910156,227.050781C177.175781,227.050781,180.636719,230.511719,180.636719,234.777344L180.636719,247.605469C180.636719,251.871094,177.175781,255.332031,172.910156,255.332031ZM172.910156,255.332031" transform="translate(-172.910156,-241.191406)" fill="rgb(87,86,92)" stroke="none" stroke-width="1"/></g></g></svg>